<svg width="578" height="692" viewBox="0 0 578 692" fill="none" xmlns="http://www.w3.org/2000/svg">
<path d="M302.083 369.844C301.623 370.139 301.356 370.359 301.309 370.409C300.664 370.936 300.587 371.875 301.115 372.496C301.643 373.118 302.588 373.193 303.233 372.667C303.28 372.617 307.092 369.588 311.898 370.341C312.732 370.47 313.507 369.937 313.653 369.121C313.8 368.304 313.267 367.557 312.433 367.427C307.595 366.676 303.682 368.791 302.067 369.861L302.083 369.844Z" fill="#FF0020"/>
<path d="M360.338 330.969C358.745 332.023 355.278 334.826 354.21 339.516C354.03 340.3 354.544 341.093 355.342 341.253C356.141 341.414 356.962 340.894 357.142 340.109C358.226 335.402 362.487 333.092 362.535 333.074C363.264 332.685 363.553 331.784 363.171 331.079C362.789 330.373 361.873 330.109 361.144 330.497C361.113 330.531 360.78 330.692 360.339 331.001L360.338 330.969Z" fill="#FF0020"/>
<path d="M373.453 328.145C387.828 349.059 381.722 377.867 359.822 392.405C337.92 406.912 308.418 401.715 294.01 380.802C279.635 359.887 285.741 331.079 307.641 316.541C329.542 302.034 359.045 307.231 373.453 328.145ZM370.918 329.824C357.452 310.233 329.82 305.372 309.305 318.961C288.791 332.55 283.079 359.532 296.545 379.122C310.011 398.713 337.643 403.574 358.158 389.985C378.672 376.396 384.384 349.414 370.918 329.824Z" fill="#FF0020"/>
<path d="M349.542 368.423C346.564 364.118 342.238 361.887 339.878 363.438C337.519 364.99 338.02 369.737 340.998 374.042C343.976 378.346 348.303 380.578 350.662 379.026C353.021 377.475 352.52 372.727 349.542 368.423Z" fill="#FF0020"/>
<path d="M359.484 355.806C356.506 351.501 352.18 349.27 349.82 350.821C347.461 352.373 347.962 357.12 350.94 361.425C353.918 365.729 358.245 367.961 360.604 366.409C362.963 364.858 362.462 360.11 359.484 355.806Z" fill="#FF0020"/>
<path d="M334.07 372.793C331.093 368.489 326.766 366.257 324.407 367.809C322.047 369.36 322.549 374.108 325.527 378.412C328.504 382.717 332.831 384.948 335.19 383.397C337.55 381.845 337.048 377.098 334.07 372.793Z" fill="#FF0020"/>
<path d="M358.464 333.528L358.313 333.394C347.595 322.171 329.54 320.36 316.325 329.16C303.109 337.96 298.116 355.127 304.692 369.11L304.781 369.31L307.474 368.07L307.385 367.869C301.394 355.168 305.927 339.546 317.957 331.524C329.971 323.518 346.383 325.182 356.136 335.365L356.287 335.5L358.448 333.513L358.464 333.528Z" fill="#FF0020"/>
<path d="M435.643 381.085C435.966 380.641 436.132 380.331 436.146 380.283C436.54 379.565 436.279 378.663 435.553 378.292C434.827 377.921 433.899 378.195 433.505 378.912C433.459 378.962 431.061 383.144 426.278 384.17C425.46 384.358 424.924 385.131 425.099 385.927C425.275 386.724 426.055 387.234 426.873 387.046C431.672 386.003 434.537 382.633 435.626 381.071L435.643 381.085Z" fill="#0DA05D"/>
<path d="M396.015 438.292C397.106 436.727 399.31 432.916 398.542 428.206C398.413 427.39 397.646 426.861 396.824 427.017C395.986 427.158 395.431 427.917 395.576 428.717C396.345 433.458 393.194 437.131 393.163 437.165C392.619 437.78 392.689 438.727 393.31 439.248C393.93 439.768 394.901 439.683 395.445 439.068C395.476 439.034 395.725 438.767 396.032 438.307L396.015 438.292Z" fill="#0DA05D"/>
<path d="M384.631 445.27C363.187 431.181 357.999 402.465 373.07 381.277C388.124 360.074 417.822 354.297 439.251 368.403C460.695 382.491 465.882 411.208 450.812 432.396C435.741 453.584 406.059 459.375 384.631 445.27ZM386.373 442.829C406.434 456.032 434.254 450.616 448.343 430.765C462.45 410.929 457.585 384.029 437.509 370.843C417.447 357.641 389.628 363.057 375.538 382.908C361.432 402.743 366.296 429.643 386.373 442.829Z" fill="#0DA05D"/>
<path d="M402.901 400.67C404.53 398.372 402.279 394.162 397.875 391.267C393.471 388.371 388.58 387.887 386.952 390.184C385.323 392.482 387.574 396.692 391.978 399.587C396.383 402.483 401.273 402.967 402.901 400.67Z" fill="#0DA05D"/>
<path d="M398.361 416.001C399.99 413.703 397.739 409.493 393.335 406.598C388.931 403.702 384.04 403.218 382.412 405.516C380.783 407.813 383.034 412.023 387.438 414.918C391.843 417.814 396.733 418.298 398.361 416.001Z" fill="#0DA05D"/>
<path d="M415.665 390.976C417.293 388.679 415.043 384.469 410.638 381.573C406.234 378.678 401.343 378.193 399.715 380.491C398.087 382.789 400.337 386.999 404.741 389.894C409.146 392.789 414.036 393.274 415.665 390.976Z" fill="#0DA05D"/>
<path d="M396.656 435.132L396.854 435.216C411.122 441.692 428.696 436.861 437.745 424.003C446.809 411.127 445.01 393.487 433.584 382.976L433.433 382.842L431.392 384.965L431.543 385.099C441.911 394.671 443.552 410.706 435.318 422.427C427.1 434.132 411.112 438.512 398.132 432.629L397.934 432.545L396.658 435.163L396.656 435.132Z" fill="#0DA05D"/>
<path d="M412.159 280.046C411.993 279.531 411.85 279.221 411.832 279.175C411.477 278.432 410.587 278.131 409.836 278.473C409.085 278.815 408.746 279.706 409.084 280.434C409.119 280.496 411.065 284.849 408.976 289.199C408.615 289.948 408.942 290.819 409.704 291.159C410.466 291.498 411.364 291.164 411.724 290.415C413.829 286.049 412.815 281.819 412.192 280.044L412.159 280.046Z" fill="#5757FF"/>
<path d="M434.988 345.402C434.362 343.618 432.571 339.631 428.204 337.477C427.47 337.102 426.534 337.409 426.137 338.132C425.74 338.856 426.038 339.765 426.771 340.14C431.173 342.324 432.254 346.972 432.272 347.019C432.451 347.822 433.27 348.304 434.097 348.115C434.923 347.927 435.431 347.117 435.252 346.313C435.234 346.266 435.155 345.92 434.988 345.402Z" fill="#5757FF"/>
<path d="M433.657 357.578C408.765 366.134 381.863 353.559 373.708 329.599C365.537 305.625 379.172 279.156 404.048 270.618C428.94 262.062 455.843 274.637 463.997 298.596C472.168 322.571 458.533 349.039 433.657 357.578ZM432.715 354.816C456.012 346.81 468.76 322.038 461.129 299.583C453.483 277.145 428.304 265.389 404.99 273.38C381.693 281.385 368.946 306.158 376.576 328.613C384.222 351.051 409.401 362.807 432.715 354.816Z" fill="#5757FF"/>
<path d="M408.614 317.585C407.729 315.022 402.881 314.333 397.788 316.045C392.694 317.757 389.283 321.223 390.169 323.786C391.054 326.349 395.902 327.039 400.995 325.326C406.089 323.614 409.5 320.148 408.614 317.585Z" fill="#5757FF"/>
<path d="M418.382 330.343C417.497 327.78 412.649 327.09 407.556 328.803C402.462 330.515 399.051 333.981 399.937 336.544C400.822 339.107 405.67 339.796 410.763 338.084C415.857 336.372 419.268 332.906 418.382 330.343Z" fill="#5757FF"/>
<path d="M408.387 301.758C407.501 299.195 402.654 298.505 397.561 300.218C392.467 301.93 389.056 305.396 389.942 307.959C390.827 310.522 395.675 311.211 400.768 309.499C405.862 307.787 409.273 304.321 408.387 301.758Z" fill="#5757FF"/>
<path d="M432.502 342.738L432.694 342.633C446.823 335.211 453.675 318.581 448.626 303.911C443.577 289.241 427.917 280.308 412.201 283.078L411.99 283.106L412.479 285.956L412.69 285.929C426.981 283.395 441.223 291.529 445.828 304.856C450.417 318.2 444.189 333.334 431.32 340.068L431.129 340.174L432.501 342.707L432.502 342.738Z" fill="#5757FF"/>
<path d="M392.929 209.567C392.385 209.453 392.04 209.424 391.975 209.427C391.139 209.361 390.377 209.945 390.295 210.763C390.213 211.581 390.797 212.315 391.633 212.381C391.699 212.377 396.574 212.925 399.295 216.876C399.763 217.536 400.702 217.724 401.402 217.239C402.102 216.754 402.295 215.851 401.811 215.175C399.073 211.209 394.807 209.943 392.913 209.584L392.929 209.567Z" fill="#FF0020"/>
<path d="M461.726 223.819C459.857 223.444 455.431 222.969 451.223 225.529C450.508 225.964 450.284 226.865 450.718 227.555C451.151 228.246 452.07 228.45 452.785 228.014C457.009 225.438 461.651 226.837 461.683 226.835C462.473 227.078 463.335 226.651 463.597 225.875C463.859 225.1 463.435 224.266 462.645 224.023C462.596 224.01 462.266 223.901 461.709 223.804L461.726 223.819Z" fill="#FF0020"/>
<path d="M472.399 230.422C466.585 255.384 441.092 271.615 415.541 266.635C389.99 261.624 373.932 237.261 379.713 212.301C385.527 187.338 411.02 171.108 436.57 176.088C462.122 181.099 478.18 205.462 472.399 230.422ZM469.444 229.831C474.872 206.457 459.846 183.649 435.919 178.972C411.993 174.295 388.126 189.484 382.699 212.858C377.271 236.232 392.298 259.04 416.224 263.717C440.15 268.394 464.017 253.206 469.444 229.831Z" fill="#FF0020"/>
<path d="M426.815 242.199C427.962 237.103 426.627 232.501 423.833 231.921C421.039 231.341 417.844 235.003 416.697 240.099C415.55 245.196 416.885 249.797 419.679 250.377C422.473 250.957 425.668 247.296 426.815 242.199Z" fill="#FF0020"/>
<path d="M442.99 240.51C444.137 235.414 442.802 230.812 440.008 230.232C437.214 229.652 434.02 233.313 432.872 238.41C431.725 243.506 433.06 248.108 435.854 248.688C438.648 249.268 441.843 245.606 442.99 240.51Z" fill="#FF0020"/>
<path d="M412.907 234.266C414.054 229.169 412.719 224.568 409.925 223.988C407.131 223.408 403.936 227.069 402.789 232.166C401.642 237.262 402.977 241.864 405.771 242.444C408.565 243.024 411.759 239.362 412.907 234.266Z" fill="#FF0020"/>
<path d="M458.371 224.157L458.379 223.95C459.326 208.418 448.32 194.342 432.765 191.254C417.208 188.134 401.076 196.775 395.234 211.33L395.144 211.526L397.906 212.537L397.996 212.342C403.32 199.102 417.983 191.239 432.128 194.085C446.271 196.899 456.28 209.695 455.408 223.823L455.4 224.031L458.371 224.157Z" fill="#FF0020"/>
<path d="M373.894 249.988C374.388 249.723 374.674 249.549 374.738 249.514C375.435 249.064 375.626 248.134 375.177 247.46C374.727 246.786 373.777 246.616 373.08 247.066C373.033 247.116 368.891 249.704 364.206 248.418C363.4 248.192 362.557 248.666 362.328 249.44C362.098 250.214 362.554 251.046 363.343 251.257C368.06 252.54 372.189 250.858 373.91 249.971L373.894 249.988Z" fill="#0DA05D"/>
<path d="M311.578 282.222C313.289 281.335 317.012 278.944 318.619 274.399C318.881 273.626 318.479 272.811 317.693 272.54C316.909 272.3 316.068 272.711 315.774 273.486C314.169 278.063 309.665 279.882 309.618 279.9C308.838 280.213 308.466 281.071 308.752 281.813C309.055 282.57 309.924 282.916 310.688 282.62C310.736 282.601 311.071 282.472 311.561 282.207L311.578 282.222Z" fill="#0DA05D"/>
<path d="M298.311 283.673C286.477 261.269 295.852 233.208 319.254 221.131C342.624 209.055 371.274 217.449 383.109 239.886C394.943 262.29 385.568 290.351 362.166 302.428C338.796 314.503 310.146 306.109 298.311 283.673ZM301.017 282.269C312.102 303.245 338.908 311.112 360.805 299.816C382.702 288.521 391.47 262.251 380.401 241.258C369.317 220.282 342.511 212.416 320.614 223.711C298.734 235.021 289.949 261.276 301.017 282.269Z" fill="#0DA05D"/>
<path d="M335.699 241.508C333.238 236.897 329.201 234.2 326.681 235.484C324.16 236.767 324.112 241.546 326.572 246.156C329.033 250.766 333.07 253.463 335.591 252.18C338.111 250.896 338.159 246.118 335.699 241.508Z" fill="#0DA05D"/>
<path d="M324.37 252.96C321.91 248.349 317.872 245.652 315.352 246.936C312.832 248.22 312.783 252.998 315.244 257.608C317.704 262.219 321.742 264.915 324.262 263.632C326.782 262.348 326.831 257.57 324.37 252.96Z" fill="#0DA05D"/>
<path d="M351.587 238.891C349.127 234.281 345.089 231.584 342.569 232.868C340.049 234.151 340 238.929 342.461 243.54C344.921 248.15 348.959 250.847 351.479 249.564C353.999 248.28 354.048 243.502 351.587 238.891Z" fill="#0DA05D"/>
<path d="M313.76 279.894L313.88 280.061C323.24 292.397 340.965 296.197 355.076 288.884C369.186 281.571 376.118 265.02 371.196 250.367L371.139 250.164L368.319 251.11L368.376 251.313C372.857 264.628 366.548 279.688 353.727 286.344C340.889 292.985 324.783 289.525 316.278 278.315L316.158 278.147L313.775 279.877L313.76 279.894Z" fill="#0DA05D"/>
<path d="M284.702 532.345C284.13 532.326 283.784 532.345 283.733 532.339C282.895 532.389 282.305 533.109 282.418 533.903C282.52 534.716 283.302 535.329 284.119 535.267C284.183 535.254 289.088 535.01 292.725 538.427C293.352 539.022 294.321 539.028 294.882 538.445C295.442 537.861 295.411 536.937 294.772 536.36C291.115 532.931 286.617 532.394 284.662 532.32L284.702 532.345Z" fill="#5757FF"/>
<path d="M355.703 534.853C353.77 534.792 349.288 535.035 345.814 538.226C345.226 538.765 345.226 539.694 345.821 540.295C346.416 540.895 347.38 540.951 347.968 540.412C351.473 537.214 356.367 537.82 356.419 537.826C357.265 537.938 358 537.386 358.065 536.575C358.13 535.763 357.513 535.02 356.667 534.909C356.615 534.903 356.254 534.859 355.714 534.835L355.703 534.853Z" fill="#5757FF"/>
<path d="M367.852 539.919C368.425 565.298 347.478 585.242 321.161 584.381C294.825 583.508 272.914 562.181 272.342 536.802C271.77 511.423 292.697 491.466 319.033 492.339C345.369 493.213 367.28 514.54 367.852 539.919ZM364.808 539.818C364.269 516.06 343.764 496.068 319.099 495.273C294.446 494.459 274.826 513.133 275.386 536.903C275.926 560.66 296.43 580.652 321.095 581.447C345.749 582.261 365.368 563.588 364.808 539.818Z" fill="#5757FF"/>
<path d="M320.923 567.843C323.759 567.944 325.946 563.813 325.809 558.615C325.672 553.417 323.262 549.121 320.426 549.019C317.59 548.917 315.402 553.049 315.54 558.247C315.677 563.445 318.087 567.741 320.923 567.843Z" fill="#5757FF"/>
<path d="M336.372 563.489C339.208 563.591 341.396 559.46 341.258 554.262C341.121 549.064 338.711 544.767 335.875 544.666C333.039 544.564 330.852 548.695 330.989 553.893C331.126 559.091 333.536 563.387 336.372 563.489Z" fill="#5757FF"/>
<path d="M305.341 562.404C308.177 562.506 310.364 558.375 310.227 553.177C310.09 547.979 307.68 543.682 304.844 543.581C302.008 543.479 299.82 547.61 299.958 552.808C300.095 558.006 302.505 562.302 305.341 562.404Z" fill="#5757FF"/>
<path d="M352.538 535.913L352.499 535.708C349.604 520.358 335.315 508.381 319.299 507.833C303.284 507.285 289.583 518.319 287.469 533.509L287.444 533.726L290.407 534.271L290.432 534.054C292.37 520.252 304.817 510.197 319.388 510.703C333.958 511.208 346.935 522.087 349.579 536.068L349.618 536.273L352.558 535.925L352.538 535.913Z" fill="#5757FF"/>
<path d="M393.426 532.023C393.317 532.567 393.281 532.901 393.267 532.949C393.184 533.76 393.81 534.469 394.621 534.519C395.449 534.583 396.186 533.957 396.253 533.163C396.251 533.099 396.782 528.357 400.77 525.558C401.464 525.076 401.622 524.15 401.128 523.498C400.634 522.845 399.705 522.691 399.028 523.188C395.025 526.004 393.777 530.201 393.394 532.057L393.426 532.023Z" fill="#FF0020"/>
<path d="M406.425 464.049C406.059 465.896 405.597 470.257 408.264 474.243C408.714 474.918 409.65 475.106 410.348 474.655C411.047 474.204 411.255 473.288 410.805 472.613C408.137 468.595 409.518 464.01 409.532 463.961C409.778 463.17 409.338 462.351 408.531 462.125C407.724 461.898 406.879 462.341 406.633 463.133C406.619 463.181 406.518 463.52 406.408 464.034L406.425 464.049Z" fill="#FF0020"/>
<path d="M414.104 453.659C439.782 458.078 456.446 482.057 451.255 507.111C446.048 532.181 420.95 549.006 395.272 544.587C369.594 540.168 352.914 516.205 358.121 491.135C363.328 466.065 388.426 449.24 414.104 453.659ZM413.502 456.556C389.464 452.423 365.942 468.162 361.089 491.646C356.219 515.115 371.82 537.573 395.874 541.689C419.912 545.822 443.434 530.084 448.287 506.6C453.157 483.131 437.556 460.672 413.502 456.556Z" fill="#FF0020"/>
<path d="M434.505 504.549C435.042 501.885 431.184 498.948 425.889 497.989C420.594 497.029 415.867 498.411 415.33 501.074C414.793 503.737 418.651 506.674 423.946 507.634C429.241 508.593 433.968 507.212 434.505 504.549Z" fill="#FF0020"/>
<path d="M432.401 488.713C432.938 486.049 429.081 483.112 423.786 482.153C418.491 481.193 413.763 482.575 413.226 485.238C412.69 487.901 416.547 490.838 421.842 491.798C427.137 492.757 431.865 491.376 432.401 488.713Z" fill="#FF0020"/>
<path d="M426.76 518.44C427.297 515.777 423.439 512.84 418.144 511.88C412.849 510.921 408.122 512.302 407.585 514.966C407.049 517.629 410.906 520.566 416.201 521.525C421.496 522.485 426.224 521.104 426.76 518.44Z" fill="#FF0020"/>
<path d="M407.324 467.396L407.112 467.391C391.238 467.079 376.96 478.381 373.889 493.642C370.818 508.902 379.745 524.274 394.669 529.362L394.883 529.43L395.897 526.696L395.683 526.628C382.125 521.988 373.985 508.017 376.785 494.135C379.586 480.252 392.556 469.988 407.014 470.266L407.226 470.271L407.339 467.379L407.324 467.396Z" fill="#FF0020"/>
<path d="M383.089 171.362C383.642 171.333 383.982 171.266 384.047 171.263C384.873 171.107 385.43 170.345 385.284 169.542C385.138 168.738 384.366 168.207 383.54 168.363C383.475 168.366 378.614 169.17 374.872 166.126C374.232 165.62 373.289 165.702 372.727 166.337C372.165 166.972 372.266 167.889 372.908 168.427C376.682 171.469 381.138 171.531 383.073 171.379L383.089 171.362Z" fill="#FF73FF"/>
<path d="M312.909 176.321C314.833 176.168 319.233 175.436 322.549 171.85C323.109 171.249 323.072 170.301 322.467 169.764C321.863 169.227 320.891 169.28 320.331 169.881C316.983 173.469 312.13 173.402 312.081 173.389C311.236 173.372 310.547 174.011 310.498 174.822C310.465 175.647 311.107 176.308 311.936 176.342C312.001 176.339 312.341 176.336 312.892 176.306L312.909 176.321Z" fill="#FF73FF"/>
<path d="M300.46 172.796C298.99 147.427 319.107 125.097 345.248 123.035C371.405 120.956 393.881 139.938 395.334 165.292C396.805 190.661 376.687 212.992 350.546 215.053C324.389 217.132 301.914 198.151 300.46 172.796ZM303.484 172.56C304.85 196.306 325.882 214.073 350.381 212.12C374.863 210.185 393.693 189.289 392.31 165.528C390.944 141.782 369.912 124.016 345.414 125.968C320.931 127.903 302.101 148.8 303.484 172.56Z" fill="#FF73FF"/>
<path d="M351.635 148.502C351.289 143.301 348.709 139.239 345.872 139.429C343.035 139.62 341.015 143.991 341.36 149.192C341.706 154.394 344.286 158.456 347.123 158.265C349.96 158.075 351.98 153.703 351.635 148.502Z" fill="#FF73FF"/>
<path d="M336.563 154.486C336.218 149.285 333.638 145.223 330.8 145.414C327.963 145.604 325.943 149.975 326.289 155.177C326.634 160.378 329.214 164.44 332.051 164.25C334.889 164.059 336.909 159.688 336.563 154.486Z" fill="#FF73FF"/>
<path d="M367.26 152.331C366.915 147.13 364.335 143.068 361.498 143.258C358.66 143.449 356.64 147.82 356.986 153.021C357.331 158.223 359.911 162.285 362.749 162.094C365.586 161.904 367.606 157.533 367.26 152.331Z" fill="#FF73FF"/>
<path d="M315.938 175.086L315.995 175.289C319.441 190.387 334.028 200.852 349.894 199.647C365.76 198.441 378.897 185.861 380.431 170.383L380.439 170.176L377.484 169.939L377.476 170.146C376.082 184.219 364.153 195.671 349.698 196.753C335.26 197.85 322.011 188.328 318.863 174.595L318.807 174.391L315.921 175.071L315.938 175.086Z" fill="#FF73FF"/>
<path d="M291.314 306.419C291.867 306.389 292.207 306.323 292.272 306.32C293.098 306.164 293.655 305.402 293.509 304.598C293.363 303.795 292.591 303.264 291.766 303.42C291.7 303.423 286.839 304.226 283.097 301.183C282.457 300.676 281.514 300.759 280.952 301.394C280.39 302.029 280.492 302.946 281.133 303.484C284.907 306.526 289.363 306.588 291.298 306.436L291.314 306.419Z" fill="#FF73FF"/>
<path d="M221.134 311.377C223.058 311.224 227.458 310.492 230.774 306.906C231.334 306.305 231.297 305.357 230.693 304.82C230.088 304.283 229.116 304.337 228.556 304.937C225.208 308.525 220.355 308.459 220.306 308.446C219.461 308.429 218.773 309.068 218.723 309.878C218.69 310.704 219.332 311.365 220.161 311.399C220.226 311.395 220.566 311.393 221.117 311.362L221.134 311.377Z" fill="#FF73FF"/>
<path d="M208.685 307.853C207.215 282.484 227.332 260.153 253.473 258.092C279.63 256.013 302.106 274.994 303.559 300.349C305.03 325.718 284.912 348.048 258.771 350.11C232.614 352.189 210.139 333.207 208.685 307.853ZM211.709 307.617C213.075 331.363 234.107 349.129 258.606 347.177C283.088 345.242 301.918 324.345 300.536 300.585C299.169 276.839 278.137 259.072 253.639 261.025C229.156 262.96 210.326 283.856 211.709 307.617Z" fill="#FF73FF"/>
<path d="M259.86 283.559C259.515 278.357 256.934 274.295 254.097 274.486C251.26 274.676 249.24 279.048 249.585 284.249C249.931 289.45 252.511 293.512 255.348 293.322C258.186 293.131 260.206 288.76 259.86 283.559Z" fill="#FF73FF"/>
<path d="M244.788 289.543C244.443 284.342 241.863 280.28 239.025 280.47C236.188 280.661 234.168 285.032 234.514 290.233C234.859 295.435 237.439 299.497 240.276 299.306C243.114 299.116 245.134 294.744 244.788 289.543Z" fill="#FF73FF"/>
<path d="M275.486 287.388C275.14 282.186 272.56 278.124 269.723 278.315C266.885 278.506 264.865 282.877 265.211 288.078C265.556 293.28 268.136 297.342 270.974 297.151C273.811 296.96 275.831 292.589 275.486 287.388Z" fill="#FF73FF"/>
<path d="M224.163 310.142L224.22 310.346C227.666 325.443 242.253 335.909 258.119 334.703C273.985 333.498 287.122 320.917 288.656 305.44L288.664 305.233L285.709 304.996L285.701 305.202C284.307 319.276 272.378 330.728 257.923 331.81C243.485 332.906 230.236 323.384 227.088 309.651L227.032 309.448L224.146 310.127L224.163 310.142Z" fill="#FF73FF"/>
<path d="M266.032 364.803C266.256 364.301 266.341 363.98 266.355 363.932C266.6 363.144 266.134 362.334 265.335 362.142C264.552 361.933 263.697 362.393 263.467 363.164C263.437 363.229 261.993 367.797 257.561 369.801C256.814 370.143 256.459 371.017 256.81 371.755C257.161 372.493 258.029 372.807 258.791 372.448C263.254 370.411 265.305 366.535 266.048 364.787L266.032 364.803Z" fill="#5757FF"/>
<path d="M239.931 429.086C240.675 427.333 241.957 423.155 240.155 418.716C239.848 417.955 238.973 417.606 238.188 417.918C237.404 418.23 237.031 419.091 237.338 419.852C239.156 424.306 236.885 428.553 236.854 428.587C236.46 429.306 236.739 430.195 237.469 430.568C238.199 430.941 239.115 430.653 239.509 429.934C239.54 429.901 239.69 429.575 239.914 429.071L239.931 429.086Z" fill="#5757FF"/>
<path d="M230.301 438.052C206.107 428.882 194.596 402.108 204.657 378.359C214.718 354.609 242.577 342.737 266.771 351.907C290.965 361.077 302.476 387.85 292.415 411.6C282.355 435.349 254.495 447.222 230.301 438.052ZM231.463 435.312C254.121 443.89 280.196 432.767 289.609 410.558C299.02 388.317 288.236 363.258 265.611 354.678C242.953 346.1 216.877 357.223 207.465 379.432C198.053 401.642 208.838 426.733 231.463 435.312Z" fill="#5757FF"/>
<path d="M238.467 390.992C239.526 388.482 236.321 384.878 231.309 382.941C226.298 381.005 221.377 381.469 220.318 383.98C219.26 386.49 222.465 390.094 227.476 392.031C232.488 393.967 237.409 393.503 238.467 390.992Z" fill="#5757FF"/>
<path d="M237.432 406.935C238.49 404.425 235.286 400.82 230.274 398.883C225.262 396.947 220.342 397.412 219.283 399.922C218.225 402.432 221.429 406.037 226.441 407.973C231.453 409.91 236.374 409.445 237.432 406.935Z" fill="#5757FF"/>
<path d="M248.806 378.839C249.864 376.329 246.66 372.724 241.648 370.788C236.636 368.851 231.716 369.316 230.657 371.826C229.599 374.336 232.803 377.941 237.815 379.878C242.827 381.814 247.748 381.349 248.806 378.839Z" fill="#5757FF"/>
<path d="M239.745 425.722L239.958 425.758C255.408 429.033 271.586 420.626 277.595 406.183C283.603 391.741 277.915 374.943 264.365 367.129L264.182 367.028L262.657 369.519L262.839 369.62C275.161 376.741 280.351 391.998 274.876 405.144C269.416 418.273 254.686 425.92 240.643 422.949L240.431 422.913L239.762 425.737L239.745 425.722Z" fill="#5757FF"/>
<path d="M361.875 444.97C362.424 444.845 362.762 444.748 362.81 444.729C363.599 444.48 364.054 443.629 363.812 442.863C363.569 442.098 362.721 441.651 361.916 441.917C361.868 441.935 357.15 443.349 353.009 440.839C352.307 440.4 351.354 440.626 350.925 441.317C350.497 442.007 350.68 442.935 351.381 443.342C355.539 445.868 359.983 445.342 361.874 444.939L361.875 444.97Z" fill="#FF73FF"/>
<path d="M292.979 459.085C294.858 458.68 299.134 457.384 301.945 453.415C302.421 452.74 302.257 451.832 301.575 451.379C300.894 450.926 299.961 451.105 299.485 451.78C296.658 455.765 291.819 456.317 291.787 456.319C290.964 456.412 290.345 457.142 290.424 457.945C290.504 458.747 291.239 459.34 292.062 459.247C292.126 459.243 292.465 459.208 293.011 459.083L292.979 459.085Z" fill="#FF73FF"/>
<path d="M280.021 457.144C275.095 432.273 292.004 407.626 317.736 402.202C343.469 396.779 368.411 412.582 373.337 437.453C378.262 462.325 361.354 486.971 335.621 492.395C309.888 497.819 284.946 482.015 280.021 457.144ZM282.999 456.531C287.609 479.807 310.969 494.609 335.051 489.533C359.132 484.456 374.97 461.374 370.36 438.098C365.75 414.822 342.39 400.02 318.308 405.096C294.226 410.173 278.389 433.255 282.999 456.531Z" fill="#FF73FF"/>
<path d="M327.571 426.448C326.515 421.342 323.403 417.655 320.619 418.213C317.835 418.77 316.434 423.361 317.49 428.466C318.545 433.572 321.658 437.259 324.441 436.702C327.225 436.144 328.626 431.554 327.571 426.448Z" fill="#FF73FF"/>
<path d="M313.478 434.379C312.422 429.273 309.31 425.586 306.526 426.143C303.742 426.701 302.341 431.291 303.397 436.397C304.452 441.503 307.565 445.19 310.349 444.632C313.133 444.075 314.534 439.484 313.478 434.379Z" fill="#FF73FF"/>
<path d="M343.565 428.226C342.509 423.121 339.397 419.434 336.613 419.991C333.829 420.548 332.428 425.139 333.484 430.245C334.539 435.35 337.652 439.037 340.436 438.48C343.219 437.923 344.62 433.332 343.565 428.226Z" fill="#FF73FF"/>
<path d="M295.782 457.477L295.854 457.663C301.352 472.132 317.246 480.582 332.824 477.329C348.417 474.058 359.743 459.916 359.147 444.42L359.138 444.199L356.185 444.358L356.194 444.58C356.718 458.668 346.431 471.533 332.257 474.504C318.083 477.476 303.617 469.773 298.625 456.609L298.553 456.423L295.765 457.462L295.782 457.477Z" fill="#FF73FF"/>
<path d="M225.481 546.368C225.2 545.879 225.006 545.584 224.974 545.543C224.502 544.859 223.536 544.637 222.855 545.054C222.173 545.47 221.98 546.382 222.473 547.076C222.505 547.117 225.255 551.228 223.988 555.755C223.76 556.526 224.257 557.37 225.058 557.606C225.859 557.842 226.717 557.442 226.914 556.68C228.191 552.133 226.392 548.064 225.45 546.377L225.481 546.368Z" fill="#0DA05D"/>
<path d="M259.813 608.227C258.869 606.537 256.352 602.786 251.621 601.091C250.817 600.804 249.969 601.186 249.719 601.947C249.47 602.709 249.916 603.553 250.72 603.839C255.471 605.545 257.417 610.016 257.429 610.047C257.758 610.807 258.659 611.217 259.428 610.942C260.197 610.668 260.568 609.821 260.238 609.06C260.216 609 260.083 608.685 259.802 608.196L259.813 608.227Z" fill="#0DA05D"/>
<path d="M261.168 620.833C238.168 631.792 209.166 622.014 196.509 599.016C183.853 576.018 192.249 548.397 215.248 537.438C238.248 526.48 267.25 536.257 279.907 559.255C292.563 582.254 284.167 609.875 261.168 620.833ZM259.717 618.168C281.241 607.912 289.106 582.043 277.261 560.52C265.416 538.997 238.253 529.839 216.729 540.095C195.206 550.351 187.34 576.22 199.186 597.742C211.031 619.265 238.194 628.424 259.717 618.168Z" fill="#0DA05D"/>
<path d="M217.439 583.229C212.717 585.456 210.003 589.266 211.377 591.737C212.752 594.209 217.694 594.406 222.416 592.178C227.139 589.951 229.853 586.141 228.478 583.67C227.104 581.198 222.161 581.001 217.439 583.229Z" fill="#0DA05D"/>
<path d="M229.432 594.704C224.71 596.932 221.996 600.742 223.37 603.213C224.745 605.685 229.687 605.882 234.41 603.654C239.132 601.426 241.846 597.617 240.471 595.145C239.097 592.674 234.154 592.476 229.432 594.704Z" fill="#0DA05D"/>
<path d="M214.43 567.682C209.708 569.91 206.994 573.719 208.368 576.191C209.742 578.662 214.685 578.86 219.407 576.632C224.129 574.404 226.843 570.594 225.469 568.123C224.094 565.651 219.152 565.454 214.43 567.682Z" fill="#0DA05D"/>
<path d="M257.141 606.01L257.303 605.896C269.945 597.132 273.656 579.996 265.944 566.035C258.212 552.063 241.02 544.804 225.949 549.175L225.733 549.238L226.745 551.997L226.961 551.934C240.668 547.977 256.302 554.565 263.33 567.266C270.358 579.966 266.969 595.566 255.464 603.529L255.302 603.643L257.131 606.03L257.141 606.01Z" fill="#0DA05D"/>
<path d="M492.186 304.171C492.078 304.715 492.042 305.049 492.027 305.097C491.945 305.908 492.571 306.616 493.382 306.666C494.21 306.731 494.947 306.104 495.014 305.31C495.011 305.247 495.542 300.505 499.531 297.705C500.224 297.224 500.383 296.298 499.889 295.645C499.395 294.993 498.466 294.839 497.789 295.335C493.785 298.152 492.538 302.349 492.155 304.204L492.186 304.171Z" fill="#FF73FF"/>
<path d="M505.185 236.197C504.819 238.043 504.357 242.404 507.024 246.39C507.474 247.065 508.41 247.253 509.109 246.802C509.807 246.352 510.015 245.435 509.565 244.76C506.897 240.743 508.278 236.157 508.293 236.109C508.538 235.317 508.098 234.499 507.291 234.272C506.484 234.046 505.639 234.488 505.393 235.28C505.379 235.328 505.278 235.667 505.169 236.182L505.185 236.197Z" fill="#FF73FF"/>
<path d="M512.865 225.806C538.543 230.225 555.207 254.205 550.016 279.258C544.809 304.328 519.711 321.153 494.033 316.734C468.355 312.315 451.675 288.352 456.882 263.282C462.088 238.212 487.187 221.387 512.865 225.806ZM512.263 228.704C488.225 224.571 464.703 240.309 459.85 263.793C454.979 287.262 470.581 309.72 494.635 313.837C518.673 317.969 542.194 302.231 547.048 278.747C551.918 255.278 536.317 232.82 512.263 228.704Z" fill="#FF73FF"/>
<path d="M533.266 276.696C533.802 274.033 529.945 271.096 524.65 270.136C519.355 269.177 514.627 270.558 514.091 273.221C513.554 275.885 517.412 278.822 522.707 279.781C528.002 280.741 532.729 279.359 533.266 276.696Z" fill="#FF73FF"/>
<path d="M531.162 260.86C531.699 258.197 527.841 255.26 522.546 254.3C517.251 253.341 512.524 254.722 511.987 257.386C511.451 260.049 515.308 262.986 520.603 263.945C525.898 264.905 530.626 263.523 531.162 260.86Z" fill="#FF73FF"/>
<path d="M525.521 290.588C526.058 287.924 522.2 284.987 516.905 284.028C511.61 283.068 506.883 284.45 506.346 287.113C505.81 289.776 509.667 292.713 514.962 293.673C520.257 294.632 524.984 293.251 525.521 290.588Z" fill="#FF73FF"/>
<path d="M506.084 239.543L505.873 239.539C489.999 239.226 475.721 250.528 472.65 265.789C469.579 281.05 478.506 296.421 493.43 301.51L493.644 301.578L494.657 298.843L494.443 298.775C480.886 294.136 472.745 280.165 475.546 266.282C478.346 252.4 491.317 242.136 505.775 242.414L505.986 242.418L506.1 239.526L506.084 239.543Z" fill="#FF73FF"/>
<path d="M528.072 148.138C528.296 147.636 528.381 147.315 528.395 147.267C528.64 146.479 528.174 145.668 527.375 145.477C526.592 145.268 525.737 145.728 525.507 146.499C525.477 146.564 524.033 151.132 519.601 153.136C518.855 153.478 518.499 154.352 518.85 155.09C519.201 155.828 520.069 156.142 520.831 155.783C525.294 153.746 527.346 149.87 528.088 148.122L528.072 148.138Z" fill="#FF0020"/>
<path d="M501.971 212.421C502.715 210.668 503.997 206.49 502.195 202.051C501.888 201.29 501.013 200.941 500.228 201.253C499.444 201.565 499.071 202.426 499.378 203.187C501.196 207.641 498.925 211.888 498.894 211.922C498.5 212.641 498.779 213.53 499.509 213.903C500.239 214.276 501.155 213.988 501.549 213.269C501.58 213.236 501.73 212.91 501.954 212.406L501.971 212.421Z" fill="#FF0020"/>
<path d="M492.341 221.387C468.147 212.217 456.637 185.443 466.697 161.694C476.758 137.944 504.617 126.071 528.811 135.242C553.005 144.412 564.516 171.185 554.455 194.935C544.395 218.684 516.535 230.557 492.341 221.387ZM493.503 218.647C516.161 227.225 542.236 216.102 551.649 193.893C561.06 171.652 550.276 146.593 527.651 138.013C504.993 129.435 478.917 140.558 469.505 162.767C460.093 184.977 470.878 210.068 493.503 218.647Z" fill="#FF0020"/>
<path d="M500.507 174.327C501.566 171.817 498.361 168.213 493.349 166.276C488.338 164.339 483.417 164.804 482.358 167.314C481.3 169.825 484.505 173.429 489.516 175.366C494.528 177.302 499.449 176.838 500.507 174.327Z" fill="#FF0020"/>
<path d="M499.472 190.27C500.53 187.76 497.326 184.155 492.314 182.218C487.302 180.282 482.382 180.747 481.323 183.257C480.265 185.767 483.469 189.372 488.481 191.308C493.493 193.245 498.414 192.78 499.472 190.27Z" fill="#FF0020"/>
<path d="M510.846 162.174C511.905 159.664 508.7 156.059 503.688 154.123C498.676 152.186 493.756 152.651 492.697 155.161C491.639 157.671 494.844 161.276 499.855 163.213C504.867 165.149 509.788 164.684 510.846 162.174Z" fill="#FF0020"/>
<path d="M501.785 209.057L501.998 209.093C517.448 212.368 533.626 203.961 539.635 189.518C545.644 175.076 539.955 158.278 526.405 150.464L526.222 150.363L524.697 152.854L524.879 152.955C537.201 160.076 542.391 175.333 536.916 188.479C531.456 201.608 516.726 209.255 502.683 206.284L502.471 206.248L501.802 209.072L501.785 209.057Z" fill="#FF0020"/>
<path d="M555.019 242.419C556.898 242.014 561.174 240.718 563.985 236.749C564.462 236.074 564.297 235.166 563.615 234.713C562.934 234.26 562.001 234.438 561.525 235.114C558.698 239.099 553.859 239.651 553.827 239.653C553.004 239.746 552.385 240.476 552.464 241.279C552.544 242.081 553.279 242.674 554.102 242.581C554.166 242.577 554.505 242.542 555.051 242.417L555.019 242.419Z" fill="#1A1A1A"/>
<path d="M542.061 240.478C537.135 215.607 554.044 190.96 579.777 185.536C605.509 180.113 630.452 195.916 635.377 220.787C640.303 245.658 623.394 270.305 597.661 275.729C571.929 281.153 546.986 265.349 542.061 240.478ZM545.039 239.865C549.649 263.141 573.009 277.943 597.091 272.867C621.172 267.79 637.01 244.707 632.4 221.432C627.79 198.156 604.43 183.354 580.348 188.43C556.266 193.507 540.429 216.589 545.039 239.865Z" fill="#1A1A1A"/>
<path d="M589.611 209.782C588.555 204.676 585.443 200.989 582.659 201.547C579.875 202.104 578.474 206.695 579.53 211.8C580.585 216.906 583.698 220.593 586.481 220.036C589.265 219.478 590.666 214.888 589.611 209.782Z" fill="#1A1A1A"/>
<path d="M575.517 217.713C574.462 212.607 571.349 208.92 568.566 209.477C565.782 210.035 564.381 214.625 565.436 219.731C566.492 224.837 569.604 228.524 572.388 227.966C575.172 227.409 576.573 222.818 575.517 217.713Z" fill="#1A1A1A"/>
<path d="M557.822 240.811L557.894 240.997C563.392 255.466 579.286 263.916 594.864 260.663C610.457 257.392 621.783 243.25 621.187 227.754L621.178 227.533L618.225 227.692L618.234 227.914C618.758 242.002 608.471 254.867 594.297 257.838C580.123 260.81 565.657 253.107 560.665 239.943L560.593 239.757L557.805 240.796L557.822 240.811Z" fill="#1A1A1A"/>
</svg>
