<svg width="1204" height="720" viewBox="0 0 1204 720" fill="none" xmlns="http://www.w3.org/2000/svg">
<path d="M215.853 242.058C215.37 241.805 215.046 241.682 214.979 241.666C214.202 241.367 213.348 241.765 213.07 242.532C212.792 243.298 213.195 244.157 213.972 244.456C214.039 244.472 218.559 246.282 220.286 250.829C220.587 251.617 221.434 252.026 222.216 251.749C222.998 251.472 223.383 250.638 223.082 249.85C221.337 245.276 217.561 242.925 215.831 242.053L215.853 242.058Z" fill="#FF0020"/>
<path d="M278.489 273.39C276.784 272.528 272.632 270.906 268.029 272.303C267.258 272.535 266.825 273.375 267.081 274.148C267.337 274.92 268.196 275.376 268.967 275.144C273.592 273.752 277.71 276.308 277.75 276.341C278.448 276.781 279.375 276.586 279.798 275.904C280.221 275.223 279.997 274.297 279.298 273.856C279.254 273.846 278.949 273.636 278.462 273.406L278.489 273.39Z" fill="#FF0020"/>
<path d="M287.442 283.381C276.4 306.232 248.354 315.205 224.873 303.389C201.419 291.556 191.311 263.356 202.335 240.478C213.376 217.627 241.423 208.653 264.904 220.47C288.358 232.302 298.465 260.503 287.442 283.381ZM284.727 282.012C295.069 260.607 285.596 234.197 263.627 223.114C241.657 212.031 215.391 220.442 205.049 241.847C194.708 263.252 204.18 289.661 226.15 300.744C248.12 311.827 274.385 303.417 284.727 282.012Z" fill="#FF0020"/>
<path d="M240.607 282.575C242.87 277.856 242.664 272.992 240.147 271.712C237.63 270.432 233.756 273.22 231.493 277.94C229.23 282.659 229.436 287.523 231.953 288.803C234.47 290.083 238.345 287.295 240.607 282.575Z" fill="#FF0020"/>
<path d="M256.494 284.957C258.757 280.238 258.551 275.374 256.034 274.094C253.517 272.813 249.642 275.602 247.379 280.321C245.116 285.041 245.322 289.905 247.839 291.185C250.356 292.465 254.231 289.677 256.494 284.957Z" fill="#FF0020"/>
<path d="M229.144 271.303C231.407 266.583 231.201 261.719 228.684 260.439C226.167 259.159 222.292 261.947 220.029 266.667C217.767 271.387 217.973 276.251 220.489 277.531C223.006 278.811 226.881 276.023 229.144 271.303Z" fill="#FF0020"/>
<path d="M275.338 273.03L275.38 272.832C279.816 257.962 272.441 241.382 258.248 234.265C244.055 227.148 226.67 231.319 217.784 243.961L217.654 244.137L220.065 245.861L220.196 245.685C228.258 234.186 244.074 230.382 257.003 236.855C269.911 243.322 276.599 258.401 272.588 271.918L272.546 272.116L275.343 273.008L275.338 273.03Z" fill="#FF0020"/>
<path d="M272.281 363.633C272.828 363.693 273.179 363.684 273.228 363.673C274.047 363.659 274.701 362.985 274.663 362.171C274.625 361.356 273.928 360.686 273.11 360.7C273.043 360.684 268.223 360.674 264.962 357.028C264.393 356.411 263.455 356.328 262.851 356.875C262.246 357.423 262.19 358.353 262.759 358.97C266.042 362.621 270.389 363.44 272.286 363.611L272.281 363.633Z" fill="#0DA05D"/>
<path d="M202.955 357.567C204.855 357.739 209.257 357.765 212.967 354.763C213.613 354.246 213.691 353.318 213.149 352.682C212.611 352.023 211.677 351.918 211.054 352.44C207.317 355.458 202.565 354.542 202.521 354.531C201.716 354.364 200.929 354.893 200.784 355.69C200.64 356.488 201.194 357.289 201.999 357.456C202.043 357.466 202.399 357.55 202.95 357.589L202.955 357.567Z" fill="#0DA05D"/>
<path d="M191.253 351.137C192.862 325.529 215.233 306.792 241.105 309.381C266.981 311.948 286.717 334.879 285.085 360.482C283.476 386.09 261.106 404.827 235.234 402.238C209.362 399.649 189.621 376.739 191.253 351.137ZM194.236 351.44C192.711 375.408 211.203 396.886 235.427 399.286C259.646 401.707 280.599 384.151 282.102 360.178C283.627 336.211 265.136 314.733 240.911 312.333C216.692 309.911 195.739 327.468 194.236 351.44Z" fill="#0DA05D"/>
<path d="M239.045 344.902C241.848 345.178 244.389 341.137 244.721 335.876C245.053 330.616 243.05 326.128 240.247 325.853C237.445 325.577 234.904 329.618 234.572 334.878C234.24 340.139 236.243 344.626 239.045 344.902Z" fill="#0DA05D"/>
<path d="M223.479 348.556C226.282 348.832 228.823 344.791 229.155 339.531C229.487 334.27 227.484 329.782 224.682 329.507C221.879 329.231 219.338 333.272 219.006 338.533C218.674 343.793 220.677 348.281 223.479 348.556Z" fill="#0DA05D"/>
<path d="M253.789 351.183C256.592 351.459 259.133 347.418 259.465 342.158C259.797 336.897 257.794 332.409 254.992 332.134C252.189 331.858 249.648 335.899 249.316 341.159C248.984 346.42 250.987 350.908 253.789 351.183Z" fill="#0DA05D"/>
<path d="M206.018 356.557L206.043 356.77C207.489 372.372 220.395 385.243 236.048 386.729C251.722 388.221 266.152 377.915 269.619 362.783L269.66 362.585L266.805 361.864L266.764 362.062C263.589 375.811 250.474 385.182 236.213 383.841C221.974 382.504 210.246 370.788 208.923 356.598L208.898 356.385L205.991 356.574L206.018 356.557Z" fill="#0DA05D"/>
<path d="M348.401 293.162C348.765 292.762 348.963 292.485 348.995 292.446C349.464 291.77 349.284 290.848 348.615 290.365C347.945 289.882 347.004 290.029 346.539 290.683C346.503 290.744 343.686 294.592 338.873 294.933C338.043 294.991 337.449 295.707 337.532 296.537C337.614 297.367 338.349 297.981 339.179 297.923C344.014 297.587 347.185 294.611 348.418 293.19L348.401 293.162Z" fill="#5757FF"/>
<path d="M302.949 345.38C304.189 343.952 306.764 340.421 306.471 335.56C306.433 334.737 305.702 334.076 304.877 334.09C304.052 334.104 303.41 334.813 303.448 335.636C303.732 340.541 300.231 343.783 300.2 343.822C299.59 344.376 299.578 345.327 300.151 345.951C300.725 346.575 301.68 346.615 302.289 346.061C302.321 346.022 302.583 345.782 302.949 345.38Z" fill="#5757FF"/>
<path d="M291.714 350.259C271.947 332.879 269.536 303.281 286.305 284.324C303.078 265.345 332.825 264.07 352.57 281.445C372.337 298.825 374.748 328.423 357.979 347.38C341.206 366.358 311.459 367.633 291.714 350.259ZM293.646 348.072C312.146 364.339 339.98 363.134 355.701 345.378C371.401 327.617 369.133 299.921 350.638 283.632C332.139 267.365 304.304 268.57 288.583 286.326C272.883 304.087 275.152 331.783 293.646 348.072Z" fill="#5757FF"/>
<path d="M314.039 308.688C315.826 306.648 314.022 302.096 310.011 298.521C305.999 294.945 301.298 293.7 299.511 295.74C297.724 297.779 299.528 302.331 303.539 305.907C307.551 309.482 312.252 310.727 314.039 308.688Z" fill="#5757FF"/>
<path d="M307.8 323.494C309.587 321.455 307.783 316.903 303.771 313.327C299.76 309.752 295.059 308.507 293.272 310.546C291.485 312.586 293.288 317.138 297.3 320.713C301.312 324.289 306.013 325.534 307.8 323.494Z" fill="#5757FF"/>
<path d="M327.674 300.646C329.461 298.607 327.657 294.055 323.645 290.48C319.634 286.904 314.933 285.659 313.146 287.699C311.359 289.738 313.162 294.29 317.174 297.866C321.186 301.441 325.887 302.686 327.674 300.646Z" fill="#5757FF"/>
<path d="M304.031 341.901L304.218 342.015C317.666 350.609 335.507 348.319 345.746 336.663C355.985 325.007 355.983 306.979 345.788 294.702L345.66 294.532L343.426 296.369L343.554 296.539C352.838 307.695 352.831 324.097 343.538 334.701C334.222 345.3 317.991 347.392 305.765 339.551L305.578 339.438L304.058 341.885L304.031 341.901Z" fill="#5757FF"/>
<path d="M400.085 241.531C399.914 241.002 399.769 240.688 399.733 240.633C399.376 239.874 398.492 239.502 397.74 239.836C396.989 240.17 396.642 241.041 396.999 241.8C397.034 241.855 398.975 246.361 396.892 250.683C396.55 251.416 396.852 252.325 397.62 252.692C398.388 253.06 399.269 252.78 399.616 252.025C401.703 247.681 400.689 243.348 400.062 241.525L400.085 241.531Z" fill="#1A1A1A"/>
<path d="M421.802 308.348C421.202 306.539 419.421 302.459 415.112 300.072C414.38 299.667 413.486 299.919 413.101 300.638C412.717 301.357 412.995 302.256 413.727 302.661C418.058 305.053 419.143 309.778 419.161 309.805C419.342 310.612 420.14 311.148 420.943 310.991C421.747 310.835 422.261 310.054 422.081 309.247C422.068 309.198 421.999 308.857 421.807 308.326L421.802 308.348Z" fill="#1A1A1A"/>
<path d="M421.356 320.89C396.794 328.212 370.062 314.113 361.725 289.454C353.414 264.777 366.616 238.756 391.161 231.407C415.723 224.085 442.454 238.184 450.792 262.844C459.103 287.52 445.901 313.541 421.356 320.89ZM420.405 318.031C443.397 311.161 455.759 286.807 447.964 263.708C440.168 240.608 415.148 227.406 392.156 234.276C369.165 241.146 356.802 265.501 364.598 288.6C372.393 311.699 397.413 324.901 420.405 318.031Z" fill="#1A1A1A"/>
<path d="M388.536 287.135C393.531 285.606 396.866 282.166 395.985 279.452C395.104 276.738 390.341 275.777 385.346 277.307C380.351 278.836 377.015 282.276 377.896 284.99C378.777 287.705 383.541 288.665 388.536 287.135Z" fill="#1A1A1A"/>
<path d="M398.02 300.346C403.015 298.817 406.35 295.377 405.469 292.663C404.589 289.949 399.825 288.988 394.83 290.518C389.835 292.047 386.5 295.487 387.381 298.201C388.262 300.915 393.025 301.876 398.02 300.346Z" fill="#1A1A1A"/>
<path d="M388.534 271.123C393.529 269.593 396.864 266.153 395.983 263.439C395.102 260.725 390.339 259.765 385.344 261.294C380.349 262.824 377.013 266.264 377.894 268.978C378.775 271.692 383.539 272.652 388.534 271.123Z" fill="#1A1A1A"/>
<path d="M419.846 305.601L420.03 305.505C433.989 298.631 440.761 282.095 435.733 267.054C430.733 251.996 415.233 242.267 399.696 244.406L399.481 244.425L399.972 247.325L400.186 247.306C414.324 245.369 428.42 254.208 432.958 267.904C437.523 281.583 431.37 296.618 418.667 302.862L418.483 302.958L419.846 305.601Z" fill="#1A1A1A"/>
<path d="M355.543 245.031C356.018 245.328 356.311 245.49 356.373 245.528C357.109 245.911 358.012 245.616 358.374 244.891C358.737 244.167 358.414 243.258 357.677 242.875C357.611 242.859 353.311 240.544 352.105 235.838C351.902 235.026 351.073 234.529 350.287 234.713C349.501 234.897 349.004 235.705 349.212 236.495C350.435 241.228 353.943 243.98 355.565 245.036L355.543 245.031Z" fill="#0DA05D"/>
<path d="M296.664 206.881C298.282 207.928 302.203 209.976 306.948 209.119C307.749 208.964 308.257 208.211 308.104 207.394C307.923 206.594 307.15 206.067 306.331 206.196C301.56 207.07 297.748 204.06 297.708 204.028C297.05 203.505 296.121 203.608 295.618 204.224C295.111 204.862 295.241 205.788 295.877 206.305C295.917 206.338 296.195 206.564 296.668 206.859L296.664 206.881Z" fill="#0DA05D"/>
<path d="M288.827 196.077C302.422 174.694 331.44 168.93 353.528 183.271C375.598 197.585 382.507 226.629 368.885 248.027C355.291 269.41 326.272 275.174 304.184 260.833C282.114 246.519 275.206 217.475 288.827 196.077ZM291.388 197.732C278.663 217.755 285.116 244.936 305.778 258.357C326.441 271.777 353.603 266.374 366.351 246.356C379.076 226.333 372.624 199.151 351.961 185.731C331.294 172.332 304.136 177.714 291.388 197.732Z" fill="#0DA05D"/>
<path d="M343.98 207.653C346.765 203.231 347.106 198.387 344.743 196.834C342.379 195.282 338.205 197.608 335.42 202.029C332.635 206.451 332.293 211.295 334.657 212.848C337.021 214.401 341.195 212.075 343.98 207.653Z" fill="#0DA05D"/>
<path d="M328.419 203.489C331.204 199.067 331.545 194.223 329.181 192.67C326.817 191.118 322.643 193.443 319.858 197.865C317.073 202.287 316.732 207.131 319.096 208.684C321.46 210.236 325.634 207.911 328.419 203.489Z" fill="#0DA05D"/>
<path d="M354.127 220.157C356.912 215.735 357.253 210.891 354.889 209.338C352.525 207.786 348.351 210.111 345.566 214.533C342.781 218.955 342.44 223.799 344.804 225.352C347.168 226.904 351.342 224.579 354.127 220.157Z" fill="#0DA05D"/>
<path d="M299.767 207.621L299.681 207.809C293.606 222.052 299.09 239.331 312.434 247.962C325.779 256.593 343.59 254.411 353.877 242.874L354.026 242.724L351.807 240.744L351.659 240.894C342.315 251.384 326.107 253.369 313.972 245.531C301.841 237.672 296.865 221.969 302.387 209.027L302.473 208.839L299.789 207.627L299.767 207.621Z" fill="#0DA05D"/>
<path d="M82.3268 283.919C82.3944 284.493 82.4647 284.836 82.4663 284.888C82.6413 285.72 83.4433 286.232 84.2132 286.032C85.0034 285.842 85.4945 284.993 85.3101 284.183C85.2883 284.121 84.3113 279.244 87.1522 275.236C87.6482 274.545 87.5087 273.576 86.8465 273.079C86.1843 272.582 85.273 272.714 84.7972 273.416C81.947 277.445 82.0882 282 82.3082 283.962L82.3268 283.919Z" fill="#FF0020"/>
<path d="M74.6716 212.712C74.8995 214.643 75.8084 219.082 79.4762 222.195C80.096 222.723 81.013 222.622 81.5171 221.964C82.0211 221.307 81.9319 220.34 81.3121 219.813C77.6334 216.669 77.5005 211.728 77.4989 211.676C77.4823 210.821 76.8284 210.149 76.0178 210.173C75.2073 210.196 74.5659 210.89 74.5824 211.745C74.584 211.797 74.5953 212.162 74.6515 212.702L74.6716 212.712Z" fill="#FF0020"/>
<path d="M77.5689 200.14C102.577 196.821 125.448 215.528 128.556 241.837C131.655 268.168 113.864 292.305 88.8565 295.624C63.8489 298.944 40.9681 280.258 37.8694 253.927C34.7706 227.597 52.5613 203.459 77.5689 200.14ZM77.9271 203.183C54.5177 206.295 37.8351 228.886 40.7598 253.544C43.6643 278.192 65.0798 295.714 88.4984 292.581C111.908 289.47 128.59 266.878 125.666 242.221C122.761 217.573 101.346 200.051 77.9271 203.183Z" fill="#FF0020"/>
<path d="M112.095 243.715C111.769 240.819 107.385 239.031 102.302 239.72C97.2184 240.41 93.3617 243.316 93.6873 246.211C94.0129 249.107 98.3975 250.895 103.481 250.206C108.564 249.517 112.42 246.61 112.095 243.715Z" fill="#FF0020"/>
<path d="M105.616 228.791C105.29 225.896 100.906 224.107 95.8225 224.796C90.7394 225.486 86.8827 228.392 87.2083 231.287C87.5339 234.183 91.9185 235.971 97.0016 235.282C102.085 234.593 105.941 231.687 105.616 228.791Z" fill="#FF0020"/>
<path d="M108.951 259.915C108.626 257.02 104.241 255.231 99.158 255.92C94.0749 256.61 90.2181 259.516 90.5437 262.411C90.8693 265.307 95.254 267.095 100.337 266.406C105.42 265.717 109.277 262.811 108.951 259.915Z" fill="#FF0020"/>
<path d="M75.9886 215.857L75.7922 215.917C61.0527 220.471 51.3522 236.026 53.206 252.062C55.0598 268.099 68.0156 280.568 83.3463 281.029L83.5644 281.031L83.6596 278.015L83.4414 278.014C69.5093 277.578 57.7091 266.253 56.0289 251.663C54.3487 237.072 63.1615 222.946 76.5849 218.791L76.7813 218.731L75.9979 215.835L75.9886 215.857Z" fill="#FF0020"/>
<path d="M66.0977 307.498C65.8301 306.992 65.6427 306.701 65.6224 306.653C65.164 305.951 64.246 305.794 63.6125 306.286C62.957 306.777 62.8115 307.761 63.2708 308.44C63.313 308.489 65.9563 312.628 64.7913 317.481C64.5851 318.32 65.0604 319.165 65.8449 319.363C66.6294 319.56 67.4166 319.075 67.6009 318.234C68.7667 313.359 67.0043 309.185 66.0994 307.451L66.0977 307.498Z" fill="#5757FF"/>
<path d="M99.1071 370.409C98.2027 368.7 95.7703 364.927 91.2773 363.492C90.5177 363.248 89.7106 363.709 89.4836 364.523C89.2566 365.337 89.6864 366.202 90.4461 366.446C94.9601 367.905 96.8595 372.456 96.8797 372.504C97.2025 373.294 98.0456 373.659 98.7826 373.313C99.5196 372.968 99.8596 372.064 99.5369 371.274C99.5166 371.226 99.3751 370.891 99.129 370.41L99.1071 370.409Z" fill="#5757FF"/>
<path d="M100.729 383.471C78.9702 396.546 51.2662 388.237 38.9717 364.953C26.6779 341.646 34.3426 312.046 56.1019 298.971C77.8612 285.896 105.566 294.182 117.86 317.489C130.153 340.796 122.489 370.396 100.729 383.471ZM99.3086 380.777C119.676 368.534 126.878 340.817 115.345 319C103.833 297.184 77.8908 289.398 57.5228 301.665C37.1556 313.908 29.9532 341.624 41.4867 363.442C52.9982 385.258 78.9406 393.044 99.3086 380.777Z" fill="#5757FF"/>
<path d="M53.2175 356.549C54.5346 359.063 59.207 358.915 63.6537 356.22C68.1004 353.524 70.6374 349.302 69.3203 346.788C68.0033 344.275 63.3308 344.422 58.8841 347.118C54.4375 349.813 51.9004 354.036 53.2175 356.549Z" fill="#5757FF"/>
<path d="M64.656 367.811C65.9731 370.324 70.6455 370.177 75.0922 367.481C79.5389 364.786 82.0759 360.564 80.7588 358.05C79.4417 355.537 74.7693 355.684 70.3226 358.379C65.876 361.075 63.3389 365.297 64.656 367.811Z" fill="#5757FF"/>
<path d="M50.219 340.321C51.5361 342.834 56.2085 342.687 60.6552 339.991C65.1018 337.296 67.6389 333.073 66.3218 330.56C65.0047 328.046 60.3323 328.194 55.8856 330.889C51.4389 333.584 48.9019 337.807 50.219 340.321Z" fill="#5757FF"/>
<path d="M96.6186 368.184L96.7772 368.049C108.675 357.927 111.995 339.58 104.534 325.398C97.0729 311.216 80.6994 304.786 66.458 310.477L66.2572 310.563L67.2527 313.407L67.4535 313.321C80.4016 308.164 95.3033 313.992 102.086 326.897C108.868 339.803 105.85 356.466 95.0173 365.691L94.8587 365.826L96.6178 368.207L96.6186 368.184Z" fill="#5757FF"/>
<path d="M120.261 401.771C119.735 401.946 119.427 402.08 119.378 402.092C118.632 402.422 118.327 403.317 118.686 404.046C119.04 404.797 119.949 405.127 120.673 404.791C120.726 404.758 125.108 402.869 129.516 404.945C130.278 405.309 131.161 404.989 131.483 404.236C131.805 403.483 131.478 402.6 130.712 402.258C126.281 400.177 122.018 401.173 120.216 401.76L120.261 401.771Z" fill="#F5F5F5"/>
<path d="M185.742 379.374C183.957 379.971 179.94 381.731 177.8 386.022C177.437 386.748 177.737 387.654 178.475 388.037C179.213 388.421 180.112 388.147 180.475 387.422C182.642 383.113 187.31 382.04 187.359 382.029C188.168 381.85 188.661 381.062 188.457 380.249C188.254 379.436 187.451 378.921 186.642 379.1C186.592 379.111 186.248 379.192 185.747 379.352L185.742 379.374Z" fill="#F5F5F5"/>
<path d="M198.573 380.894C207.461 405.386 194.892 431.744 170.559 439.652C146.204 447.555 119.152 434.094 110.264 409.601C101.376 385.108 113.923 358.745 138.278 350.843C162.633 342.94 189.685 356.401 198.573 380.894ZM195.758 381.807C187.434 358.881 162.108 346.251 139.305 353.674C116.508 361.075 104.733 385.756 113.079 408.688C121.403 431.614 146.73 444.244 169.532 436.821C192.33 429.42 204.104 404.739 195.758 381.807Z" fill="#F5F5F5"/>
<path d="M164.483 423.834C167.063 422.98 167.702 418.174 165.911 413.1C164.12 408.025 160.577 404.604 157.998 405.458C155.419 406.312 154.78 411.118 156.571 416.192C158.362 421.267 161.904 424.688 164.483 423.834Z" fill="#F5F5F5"/>
<path d="M177.195 414.159C179.774 413.306 180.413 408.5 178.622 403.425C176.831 398.351 173.289 394.929 170.71 395.783C168.13 396.637 167.491 401.443 169.282 406.517C171.073 411.592 174.616 415.013 177.195 414.159Z" fill="#F5F5F5"/>
<path d="M148.579 423.992C151.158 423.139 151.797 418.333 150.007 413.258C148.216 408.184 144.673 404.762 142.094 405.616C139.515 406.47 138.876 411.276 140.666 416.35C142.457 421.425 146 424.846 148.579 423.992Z" fill="#F5F5F5"/>
<path d="M183.282 381.812L183.181 381.627C175.585 367.685 158.693 360.885 143.916 365.78C129.139 370.676 120.212 386.047 123.189 401.532L123.236 401.751L126.113 401.277L126.066 401.057C123.377 386.982 131.477 372.988 144.923 368.54C158.368 364.092 173.711 370.271 180.635 382.966L180.736 383.152L183.304 381.818L183.282 381.812Z" fill="#F5F5F5"/>
<path d="M428.391 214.049C428.691 214.515 428.917 214.777 428.952 214.832C429.497 215.472 430.434 215.578 431.06 215.053C431.685 214.528 431.764 213.595 431.22 212.955C431.184 212.9 428.077 209.075 428.866 204.317C428.989 203.51 428.45 202.732 427.62 202.558C426.79 202.385 426.044 202.928 425.894 203.751C425.123 208.538 427.277 212.438 428.368 214.043L428.391 214.049Z" fill="#FF73FF"/>
<path d="M389.303 155.552C390.39 157.147 393.206 160.606 397.964 161.709C398.764 161.898 399.569 161.396 399.736 160.604C399.902 159.813 399.375 158.996 398.575 158.807C393.799 157.677 391.452 153.429 391.439 153.38C391.036 152.638 390.139 152.356 389.41 152.715C388.677 153.096 388.421 153.981 388.802 154.718C388.838 154.772 389.009 155.067 389.308 155.53L389.303 155.552Z" fill="#FF73FF"/>
<path d="M386.195 142.993C407.5 129.143 436.866 135.549 451.612 157.232C466.381 178.92 461.033 207.849 439.732 221.677C418.426 235.527 389.061 229.12 374.315 207.437C359.546 185.749 364.894 156.821 386.195 142.993ZM387.898 145.502C367.951 158.457 362.943 185.53 376.78 205.84C390.595 226.145 418.077 232.144 438.029 219.167C457.976 206.212 462.984 179.14 449.147 158.829C435.332 138.524 407.85 132.525 387.898 145.502Z" fill="#FF73FF"/>
<path d="M432.658 175.4C437.004 172.522 439.254 168.268 437.682 165.899C436.11 163.529 431.313 163.941 426.966 166.818C422.62 169.696 420.37 173.95 421.942 176.32C423.514 178.69 428.311 178.278 432.658 175.4Z" fill="#FF73FF"/>
<path d="M419.991 165.275C424.337 162.397 426.587 158.143 425.015 155.774C423.443 153.404 418.646 153.816 414.299 156.693C409.953 159.571 407.703 163.825 409.275 166.195C410.847 168.565 415.644 168.153 419.991 165.275Z" fill="#FF73FF"/>
<path d="M437.076 190.87C441.422 187.992 443.672 183.738 442.1 181.368C440.528 178.998 435.731 179.41 431.384 182.288C427.038 185.166 424.788 189.42 426.36 191.79C427.932 194.16 432.729 193.748 437.076 190.87Z" fill="#FF73FF"/>
<path d="M391.877 157.57L391.729 157.72C380.324 168.196 378.463 186.052 387.374 199.235C396.284 212.418 413.721 217.593 427.925 211.255L428.108 211.16L426.85 208.476L426.666 208.571C413.752 214.335 397.893 209.65 389.79 197.631C381.682 185.634 383.386 169.408 393.754 159.868L393.902 159.718L391.882 157.548L391.877 157.57Z" fill="#FF73FF"/>
<path d="M202.364 208.25C202.911 208.195 203.232 208.11 203.281 208.098C204.087 207.921 204.56 207.114 204.33 206.325C204.123 205.541 203.301 205.026 202.517 205.209C202.446 205.215 197.762 206.224 193.825 203.369C193.158 202.89 192.223 203.014 191.756 203.685C191.288 204.355 191.446 205.265 192.135 205.749C196.117 208.615 200.5 208.476 202.386 208.255L202.364 208.25Z" fill="#5757FF"/>
<path d="M133.595 217.438C135.487 217.215 139.751 216.258 142.713 212.493C143.222 211.849 143.092 210.916 142.432 210.389C141.772 209.862 140.84 209.965 140.331 210.609C137.363 214.396 132.549 214.528 132.504 214.517C131.684 214.531 131.05 215.214 131.088 216.034C131.126 216.853 131.83 217.505 132.65 217.491C132.694 217.502 133.051 217.471 133.6 217.416L133.595 217.438Z" fill="#5757FF"/>
<path d="M121.036 213.517C117.01 187.958 134.559 164.692 160.173 161.66C185.786 158.628 209.906 176.941 213.931 202.499C217.957 228.058 200.408 251.324 174.794 254.357C149.181 257.389 125.061 239.075 121.036 213.517ZM123.991 213.168C127.77 237.098 150.353 254.234 174.308 251.402C198.29 248.554 214.711 226.768 210.949 202.865C207.17 178.934 184.587 161.799 160.632 164.631C136.677 167.463 120.23 189.265 123.991 213.168Z" fill="#5757FF"/>
<path d="M165.956 197.287C168.661 196.962 170.204 192.392 169.402 187.079C168.6 181.767 165.758 177.723 163.053 178.048C160.348 178.373 158.806 182.942 159.607 188.255C160.409 193.568 163.252 197.611 165.956 197.287Z" fill="#5757FF"/>
<path d="M151.597 204.289C154.301 203.964 155.844 199.394 155.042 194.081C154.24 188.769 151.398 184.725 148.693 185.05C145.988 185.374 144.446 189.944 145.248 195.257C146.049 200.57 148.892 204.613 151.597 204.289Z" fill="#5757FF"/>
<path d="M181.636 200.243C184.341 199.918 185.883 195.348 185.082 190.035C184.28 184.723 181.437 180.679 178.733 181.004C176.028 181.329 174.485 185.899 175.287 191.211C176.089 196.524 178.931 200.567 181.636 200.243Z" fill="#5757FF"/>
<path d="M136.425 215.609L136.499 215.811C141.312 230.853 156.632 240.738 172.154 238.799C187.676 236.861 199.446 223.595 199.518 207.953L199.515 207.745L196.595 207.654L196.598 207.863C196.52 222.094 185.841 234.163 171.709 235.923C157.6 237.688 143.657 228.683 139.279 215.014L139.205 214.812L136.42 215.631L136.425 215.609Z" fill="#5757FF"/>
<path d="M180.235 331.223C180.616 331.638 180.869 331.883 180.908 331.916C181.516 332.477 182.48 332.451 183.025 331.861C183.57 331.271 183.538 330.312 182.908 329.745C182.868 329.713 179.301 326.315 179.43 321.474C179.463 320.647 178.795 319.932 177.982 319.902C177.17 319.872 176.455 320.491 176.449 321.301C176.316 326.164 178.975 329.764 180.262 331.206L180.235 331.223Z" fill="#FF73FF"/>
<path d="M133.831 278.378C135.114 279.811 138.359 282.881 143.199 283.356C144.021 283.436 144.729 282.842 144.784 282.026C144.84 281.21 144.223 280.488 143.4 280.409C138.538 279.928 135.66 276 135.642 275.973C135.154 275.304 134.212 275.128 133.555 275.595C132.897 276.061 132.747 276.994 133.236 277.662C133.271 277.716 133.469 277.993 133.848 278.406L133.831 278.378Z" fill="#FF73FF"/>
<path d="M129.095 266.161C148.256 249.557 178.043 252.029 195.506 271.691C212.97 291.353 211.606 320.849 192.445 337.453C173.284 354.057 143.497 351.586 126.033 331.924C108.569 312.262 109.934 282.766 129.095 266.161ZM131.103 268.445C113.172 283.984 111.892 311.609 128.237 330.009C144.581 348.41 172.478 350.726 190.409 335.186C208.341 319.647 209.62 292.022 193.276 273.621C176.932 255.221 149.035 252.905 131.103 268.445Z" fill="#FF73FF"/>
<path d="M179.322 292.248C183.233 288.801 184.893 284.27 183.03 282.129C181.166 279.987 176.484 281.045 172.573 284.493C168.661 287.94 167.002 292.471 168.865 294.612C170.729 296.754 175.411 295.696 179.322 292.248Z" fill="#FF73FF"/>
<path d="M165.449 283.938C169.36 280.491 171.02 275.96 169.157 273.818C167.293 271.677 162.611 272.735 158.7 276.182C154.788 279.629 153.129 284.16 154.992 286.302C156.856 288.443 161.538 287.385 165.449 283.938Z" fill="#FF73FF"/>
<path d="M185.704 307.022C189.615 303.575 191.275 299.044 189.411 296.902C187.548 294.761 182.866 295.819 178.955 299.266C175.043 302.713 173.383 307.244 175.247 309.386C177.111 311.527 181.793 310.469 185.704 307.022Z" fill="#FF73FF"/>
<path d="M136.617 280.016L136.491 280.171C126.649 292.117 127.186 310.11 137.733 322.027C148.301 333.95 166.198 336.778 179.361 328.581L179.549 328.463L177.947 325.978L177.759 326.095C165.783 333.533 149.511 330.973 139.905 320.135C130.299 309.297 129.82 292.915 138.78 282.056L138.906 281.9L136.622 279.994L136.617 280.016Z" fill="#FF73FF"/>
<path d="M24.5702 263.011C24.8549 262.525 25.0158 262.21 25.0355 262.162C25.3956 261.413 25.1091 260.464 24.4098 260.079C23.7105 259.693 22.8231 259.977 22.4641 260.749C22.4444 260.798 20.2366 265.224 15.6766 266.367C14.8943 266.55 14.4072 267.4 14.5994 268.213C14.7916 269.026 15.5644 269.572 16.3236 269.366C20.9055 268.222 23.5488 264.643 24.5472 262.989L24.5702 263.011Z" fill="#0DA05D"/>
<path d="M-22.4214 330.912C-43.3378 316.367 -49.2193 286.331 -35.5168 263.94C-21.8142 241.549 6.33742 235.153 27.2537 249.698C48.1701 264.243 54.0516 294.279 40.349 316.67C26.6464 339.061 -1.50513 345.457 -22.4214 330.912ZM-20.825 328.331C-1.25011 341.943 25.1162 335.953 37.9393 314.999C50.7625 294.044 45.2553 265.913 25.6803 252.301C6.10544 238.689 -20.2609 244.679 -33.084 265.634C-45.9071 286.588 -40.3999 314.719 -20.825 328.331Z" fill="#0DA05D"/>
<path d="M0.580104 263.976C-3.69528 260.979 -8.34913 260.51 -9.81454 262.928C-11.28 265.347 -9.00202 269.737 -4.72663 272.735C-0.451241 275.732 4.2026 276.201 5.66802 273.783C7.13343 271.364 4.85549 266.974 0.580104 263.976Z" fill="#0DA05D"/>
<path d="M-11.5426 320.068L-11.3627 320.152C2.51449 326.789 19.237 321.52 27.5413 307.902C35.8446 294.262 33.6287 275.732 22.363 264.809L22.2018 264.653L20.3073 266.899L20.4686 267.055C30.6988 276.999 32.7252 293.844 25.1766 306.242C17.6281 318.64 2.39976 323.428 -10.2185 317.382L-10.3983 317.297L-11.5645 320.069L-11.5426 320.068Z" fill="#0DA05D"/>
<path d="M533.905 362.275C533.422 362.022 533.097 361.899 533.031 361.883C532.254 361.583 531.4 361.982 531.122 362.749C530.844 363.515 531.247 364.374 532.024 364.673C532.091 364.689 536.61 366.499 538.338 371.046C538.639 371.834 539.486 372.243 540.268 371.966C541.049 371.688 541.435 370.855 541.134 370.067C539.389 365.492 535.613 363.142 533.883 362.27L533.905 362.275Z" fill="#FF73FF"/>
<path d="M596.54 393.606C594.836 392.745 590.684 391.123 586.081 392.52C585.31 392.752 584.876 393.592 585.133 394.364C585.389 395.137 586.247 395.592 587.018 395.36C591.643 393.969 595.762 396.525 595.801 396.557C596.5 396.998 597.426 396.803 597.85 396.121C598.273 395.44 598.049 394.514 597.35 394.073C597.306 394.063 597.001 393.853 596.514 393.623L596.54 393.606Z" fill="#FF73FF"/>
<path d="M605.494 403.598C594.452 426.448 566.405 435.422 542.924 423.606C519.47 411.773 509.363 383.573 520.387 360.695C531.428 337.844 559.475 328.87 582.956 340.686C606.41 352.519 616.517 380.719 605.494 403.598ZM602.779 402.228C613.121 380.824 603.648 354.414 581.678 343.331C559.709 332.248 533.443 340.659 523.101 362.064C512.759 383.468 522.232 409.878 544.202 420.961C566.172 432.044 592.437 423.633 602.779 402.228Z" fill="#FF73FF"/>
<path d="M558.659 402.792C560.922 398.073 560.716 393.209 558.199 391.929C555.682 390.648 551.807 393.437 549.545 398.156C547.282 402.876 547.488 407.74 550.005 409.02C552.522 410.3 556.396 407.512 558.659 402.792Z" fill="#FF73FF"/>
<path d="M574.545 405.174C576.808 400.454 576.602 395.591 574.085 394.31C571.568 393.03 567.693 395.819 565.43 400.538C563.167 405.258 563.373 410.122 565.89 411.402C568.407 412.682 572.282 409.894 574.545 405.174Z" fill="#FF73FF"/>
<path d="M547.196 391.52C549.459 386.8 549.253 381.936 546.736 380.656C544.219 379.376 540.344 382.164 538.081 386.884C535.818 391.604 536.024 396.467 538.541 397.748C541.058 399.028 544.933 396.239 547.196 391.52Z" fill="#FF73FF"/>
<path d="M593.39 393.247L593.432 393.049C597.867 378.179 590.492 361.599 576.3 354.482C562.107 347.364 544.722 351.536 535.836 364.177L535.706 364.354L538.117 366.078L538.248 365.901C546.31 354.403 562.125 350.599 575.055 357.071C587.962 363.539 594.651 378.618 590.64 392.135L590.598 392.333L593.395 393.225L593.39 393.247Z" fill="#FF73FF"/>
<path d="M590.333 483.851C590.88 483.911 591.231 483.902 591.28 483.89C592.098 483.877 592.753 483.203 592.715 482.388C592.677 481.574 591.98 480.903 591.161 480.917C591.095 480.902 586.275 480.892 583.013 477.246C582.445 476.629 581.507 476.546 580.903 477.093C580.298 477.641 580.242 478.571 580.81 479.188C584.094 482.839 588.441 483.658 590.338 483.829L590.333 483.851Z" fill="#B6B6B6"/>
<path d="M521.007 477.783C522.906 477.956 527.309 477.982 531.019 474.98C531.664 474.463 531.743 473.535 531.201 472.898C530.663 472.24 529.729 472.134 529.106 472.657C525.369 475.675 520.617 474.758 520.573 474.748C519.768 474.581 518.98 475.11 518.836 475.907C518.692 476.704 519.246 477.505 520.051 477.673C520.095 477.683 520.451 477.767 521.002 477.805L521.007 477.783Z" fill="#B6B6B6"/>
<path d="M509.305 471.354C510.914 445.746 533.284 427.008 559.156 429.598C585.033 432.165 604.769 455.096 603.137 480.699C601.528 506.306 579.157 525.044 553.285 522.454C527.413 519.865 507.673 496.956 509.305 471.354ZM512.288 471.657C510.763 495.624 529.254 517.103 553.479 519.502C577.698 521.924 598.651 504.368 600.154 480.395C601.679 456.428 583.187 434.949 558.963 432.55C534.744 430.128 513.791 447.684 512.288 471.657Z" fill="#B6B6B6"/>
<path d="M557.097 465.119C559.9 465.394 562.441 461.353 562.773 456.093C563.105 450.833 561.102 446.345 558.299 446.069C555.497 445.794 552.955 449.835 552.623 455.095C552.291 460.355 554.294 464.843 557.097 465.119Z" fill="#B6B6B6"/>
<path d="M541.531 468.774C544.334 469.05 546.875 465.009 547.207 459.748C547.539 454.488 545.536 450 542.733 449.725C539.931 449.449 537.39 453.49 537.058 458.75C536.726 464.011 538.728 468.498 541.531 468.774Z" fill="#B6B6B6"/>
<path d="M571.842 471.4C574.644 471.676 577.185 467.635 577.517 462.374C577.849 457.114 575.846 452.626 573.044 452.351C570.241 452.075 567.7 456.116 567.368 461.376C567.036 466.637 569.039 471.124 571.842 471.4Z" fill="#B6B6B6"/>
<path d="M524.07 476.774L524.095 476.987C525.541 492.589 538.447 505.459 554.099 506.946C569.774 508.437 584.204 498.132 587.67 482.999L587.712 482.802L584.857 482.081L584.816 482.279C581.641 496.028 568.526 505.399 554.265 504.057C540.025 502.721 528.298 491.005 526.974 476.815L526.949 476.601L524.043 476.79L524.07 476.774Z" fill="#B6B6B6"/>
<path d="M666.452 413.379C666.817 412.979 667.015 412.702 667.047 412.663C667.516 411.987 667.336 411.065 666.666 410.582C665.997 410.099 665.055 410.246 664.591 410.9C664.555 410.961 661.738 414.809 656.925 415.15C656.095 415.208 655.501 415.924 655.583 416.754C655.666 417.584 656.401 418.198 657.23 418.14C662.066 417.804 665.237 414.828 666.47 413.406L666.452 413.379Z" fill="#1A1A1A"/>
<path d="M621.001 465.597C622.241 464.169 624.816 460.638 624.523 455.777C624.484 454.954 623.754 454.293 622.929 454.307C622.104 454.321 621.462 455.03 621.5 455.853C621.784 460.758 618.283 464 618.251 464.039C617.642 464.593 617.63 465.544 618.203 466.168C618.777 466.792 619.731 466.832 620.341 466.278C620.373 466.239 620.635 465.999 621.001 465.597Z" fill="#1A1A1A"/>
<path d="M609.766 470.476C589.999 453.096 587.588 423.498 604.357 404.541C621.13 385.562 650.877 384.287 670.622 401.662C690.389 419.042 692.8 448.64 676.031 467.597C659.258 486.575 629.511 487.85 609.766 470.476ZM611.698 468.289C630.197 484.556 658.032 483.35 673.753 465.595C689.452 447.833 687.184 420.138 668.69 403.849C650.19 387.582 622.356 388.787 606.634 406.543C590.935 424.304 593.203 451.999 611.698 468.289Z" fill="#1A1A1A"/>
<path d="M632.091 428.904C633.878 426.865 632.074 422.313 628.062 418.737C624.051 415.162 619.35 413.917 617.563 415.957C615.776 417.996 617.579 422.548 621.591 426.123C625.603 429.699 630.304 430.944 632.091 428.904Z" fill="#1A1A1A"/>
<path d="M625.851 443.711C627.638 441.671 625.835 437.12 621.823 433.544C617.811 429.969 613.111 428.724 611.324 430.763C609.537 432.803 611.34 437.355 615.352 440.93C619.363 444.505 624.064 445.75 625.851 443.711Z" fill="#1A1A1A"/>
<path d="M645.725 420.863C647.512 418.824 645.709 414.272 641.697 410.696C637.686 407.121 632.985 405.876 631.198 407.915C629.411 409.955 631.214 414.507 635.226 418.082C639.237 421.658 643.938 422.903 645.725 420.863Z" fill="#1A1A1A"/>
<path d="M622.083 462.118L622.27 462.232C635.718 470.826 653.558 468.536 663.798 456.88C674.037 445.224 674.034 427.196 663.84 414.918L663.712 414.749L661.477 416.586L661.606 416.755C670.889 427.912 670.883 444.314 661.59 454.918C652.274 465.517 636.043 467.608 623.817 459.768L623.63 459.654L622.11 462.101L622.083 462.118Z" fill="#1A1A1A"/>
<path d="M718.137 361.747C717.966 361.219 717.82 360.905 717.785 360.85C717.428 360.091 716.543 359.719 715.792 360.053C715.041 360.387 714.693 361.258 715.05 362.017C715.086 362.072 717.027 366.578 714.944 370.9C714.602 371.633 714.904 372.541 715.672 372.909C716.44 373.277 717.321 372.997 717.668 372.242C719.755 367.898 718.741 363.565 718.114 361.742L718.137 361.747Z" fill="#5757FF"/>
<path d="M739.854 428.565C739.254 426.756 737.472 422.676 733.163 420.289C732.431 419.884 731.538 420.136 731.153 420.855C730.769 421.574 731.047 422.473 731.779 422.878C736.11 425.27 737.195 429.995 737.213 430.022C737.393 430.829 738.191 431.365 738.995 431.208C739.799 431.051 740.313 430.271 740.132 429.464C740.119 429.414 740.051 429.074 739.859 428.543L739.854 428.565Z" fill="#5757FF"/>
<path d="M739.408 441.107C714.846 448.429 688.114 434.33 679.777 409.67C671.466 384.994 684.668 358.973 709.212 351.624C733.775 344.302 760.506 358.4 768.844 383.06C777.154 407.737 763.953 433.758 739.408 441.107ZM738.457 438.248C761.449 431.378 773.811 407.023 766.016 383.924C758.22 360.825 733.2 347.623 710.208 354.493C687.216 361.363 674.854 385.718 682.65 408.817C690.445 431.916 715.465 445.118 738.457 438.248Z" fill="#5757FF"/>
<path d="M706.587 407.352C711.583 405.823 714.918 402.383 714.037 399.668C713.156 396.954 708.392 395.994 703.397 397.524C698.402 399.053 695.067 402.493 695.948 405.207C696.829 407.921 701.592 408.882 706.587 407.352Z" fill="#5757FF"/>
<path d="M716.072 420.563C721.067 419.034 724.402 415.594 723.521 412.879C722.64 410.165 717.877 409.205 712.882 410.735C707.887 412.264 704.552 415.704 705.432 418.418C706.313 421.132 711.077 422.093 716.072 420.563Z" fill="#5757FF"/>
<path d="M706.585 391.339C711.581 389.81 714.916 386.37 714.035 383.656C713.154 380.942 708.391 379.981 703.395 381.511C698.4 383.04 695.065 386.48 695.946 389.195C696.827 391.909 701.59 392.869 706.585 391.339Z" fill="#5757FF"/>
<path d="M737.898 425.818L738.081 425.722C752.04 418.847 758.812 402.312 753.785 387.271C748.785 372.213 733.285 362.484 717.748 364.623L717.533 364.642L718.023 367.542L718.238 367.523C732.376 365.586 746.472 374.425 751.01 388.121C755.575 401.8 749.422 416.835 736.719 423.079L736.535 423.175L737.898 425.818Z" fill="#5757FF"/>
<path d="M673.595 365.247C674.069 365.545 674.362 365.707 674.424 365.745C675.161 366.128 676.064 365.832 676.426 365.108C676.788 364.384 676.466 363.474 675.729 363.092C675.663 363.076 671.363 360.761 670.157 356.055C669.954 355.243 669.125 354.745 668.339 354.929C667.553 355.114 667.056 355.922 667.264 356.711C668.487 361.445 671.995 364.197 673.617 365.253L673.595 365.247Z" fill="#0DA05D"/>
<path d="M614.715 327.098C616.333 328.145 620.255 330.193 624.999 329.336C625.8 329.18 626.308 328.428 626.155 327.611C625.975 326.811 625.201 326.284 624.382 326.413C619.611 327.287 615.799 324.277 615.76 324.244C615.101 323.722 614.172 323.824 613.669 324.441C613.162 325.079 613.292 326.005 613.928 326.522C613.968 326.554 614.246 326.781 614.719 327.076L614.715 327.098Z" fill="#0DA05D"/>
<path d="M606.878 316.293C620.473 294.911 649.491 289.147 671.579 303.488C693.649 317.801 700.558 346.845 686.936 368.244C673.342 389.627 644.323 395.39 622.236 381.05C600.165 366.736 593.257 337.692 606.878 316.293ZM609.44 317.948C596.714 337.972 603.167 365.153 623.829 378.574C644.492 391.994 671.654 386.59 684.402 366.573C697.128 346.549 690.675 319.368 670.012 305.948C649.345 292.549 622.187 297.931 609.44 317.948Z" fill="#0DA05D"/>
<path d="M662.031 327.869C664.816 323.448 665.158 318.604 662.794 317.051C660.43 315.498 656.256 317.824 653.471 322.246C650.686 326.668 650.345 331.512 652.708 333.065C655.072 334.617 659.246 332.291 662.031 327.869Z" fill="#0DA05D"/>
<path d="M646.47 323.705C649.255 319.283 649.596 314.44 647.232 312.887C644.868 311.334 640.694 313.66 637.909 318.082C635.124 322.504 634.783 327.348 637.147 328.9C639.511 330.453 643.685 328.127 646.47 323.705Z" fill="#0DA05D"/>
<path d="M672.178 340.373C674.963 335.951 675.304 331.108 672.94 329.555C670.576 328.002 666.402 330.328 663.617 334.75C660.832 339.172 660.491 344.016 662.855 345.568C665.219 347.121 669.393 344.795 672.178 340.373Z" fill="#0DA05D"/>
<path d="M617.818 327.838L617.732 328.026C611.657 342.269 617.141 359.548 630.486 368.179C643.83 376.81 661.642 374.628 671.929 363.091L672.077 362.941L669.858 360.961L669.71 361.111C660.366 371.601 644.158 373.585 632.023 365.748C619.892 357.889 614.916 342.186 620.438 329.243L620.524 329.056L617.84 327.843L617.818 327.838Z" fill="#0DA05D"/>
<path d="M367.108 374.625C366.582 374.8 366.274 374.935 366.225 374.946C365.48 375.277 365.175 376.172 365.533 376.901C365.888 377.652 366.797 377.982 367.52 377.646C367.573 377.612 371.955 375.724 376.363 377.8C377.125 378.164 378.009 377.843 378.33 377.09C378.652 376.338 378.325 375.455 377.559 375.113C373.128 373.031 368.865 374.027 367.064 374.615L367.108 374.625Z" fill="#FF73FF"/>
<path d="M432.59 352.228C430.804 352.825 426.788 354.585 424.647 358.877C424.284 359.602 424.585 360.508 425.322 360.892C426.06 361.275 426.959 361.002 427.322 360.276C429.49 355.968 434.157 354.895 434.206 354.883C435.015 354.704 435.508 353.917 435.305 353.104C435.101 352.29 434.298 351.775 433.489 351.954C433.44 351.966 433.095 352.047 432.594 352.206L432.59 352.228Z" fill="#FF73FF"/>
<path d="M445.42 353.748C454.308 378.241 441.739 404.599 417.406 412.507C393.051 420.409 365.999 406.948 357.111 382.456C348.223 357.963 360.77 331.6 385.125 323.697C409.48 315.795 436.532 329.256 445.42 353.748ZM442.605 354.662C434.281 331.735 408.955 319.105 386.152 326.528C363.355 333.929 351.58 358.61 359.926 381.542C368.25 404.469 393.577 417.099 416.379 409.676C439.177 402.275 450.951 377.594 442.605 354.662Z" fill="#FF73FF"/>
<path d="M411.331 396.689C413.91 395.835 414.549 391.029 412.758 385.954C410.967 380.88 407.425 377.458 404.845 378.312C402.266 379.166 401.627 383.972 403.418 389.047C405.209 394.121 408.751 397.543 411.331 396.689Z" fill="#FF73FF"/>
<path d="M424.042 387.014C426.621 386.16 427.26 381.354 425.469 376.28C423.679 371.205 420.136 367.784 417.557 368.637C414.978 369.491 414.338 374.297 416.129 379.372C417.92 384.446 421.463 387.868 424.042 387.014Z" fill="#FF73FF"/>
<path d="M395.426 396.847C398.006 395.993 398.645 391.187 396.854 386.113C395.063 381.038 391.52 377.617 388.941 378.47C386.362 379.324 385.723 384.13 387.514 389.205C389.304 394.279 392.847 397.701 395.426 396.847Z" fill="#FF73FF"/>
<path d="M430.129 354.667L430.028 354.481C422.432 340.539 405.54 333.739 390.763 338.635C375.986 343.531 367.06 358.902 370.036 374.387L370.083 374.606L372.961 374.131L372.913 373.912C370.224 359.837 378.324 345.842 391.77 341.395C405.216 336.947 420.558 343.125 427.482 355.821L427.583 356.007L430.151 354.672L430.129 354.667Z" fill="#FF73FF"/>
<path d="M762.744 315.745C763.262 315.886 763.597 315.926 763.658 315.942C764.47 316.044 765.239 315.471 765.376 314.642C765.513 313.812 764.984 313.057 764.172 312.956C764.111 312.939 759.373 312.232 756.962 308.112C756.546 307.421 755.651 307.213 754.92 307.66C754.189 308.107 753.973 309.034 754.38 309.756C756.821 313.884 760.894 315.312 762.724 315.757L762.744 315.745Z" fill="#FF73FF"/>
<path d="M696.234 298.757C698.056 299.2 702.35 299.84 706.609 297.36C707.328 296.946 707.613 296.009 707.238 295.298C706.863 294.588 705.952 294.341 705.233 294.755C700.944 297.227 696.503 295.667 696.462 295.64C695.691 295.363 694.842 295.775 694.523 296.551C694.214 297.347 694.582 298.19 695.333 298.478C695.393 298.495 695.708 298.597 696.224 298.737L696.234 298.757Z" fill="#FF73FF"/>
<path d="M686.285 291.606C693.436 266.259 719.353 250.55 744 256.587C768.667 262.613 782.906 288.169 775.745 313.497C768.594 338.844 742.677 354.553 718.03 348.515C693.363 342.489 679.124 316.933 686.285 291.606ZM689.135 292.307C682.433 316.029 695.756 339.948 718.861 345.586C741.946 351.236 766.202 336.538 772.894 312.796C779.597 289.074 766.274 265.155 743.169 259.516C720.084 253.866 695.828 268.565 689.135 292.307Z" fill="#FF73FF"/>
<path d="M741.244 283.729C742.689 278.507 741.74 273.749 739.124 273.101C736.509 272.452 733.218 276.159 731.773 281.381C730.329 286.602 731.278 291.361 733.893 292.009C736.508 292.657 739.8 288.95 741.244 283.729Z" fill="#FF73FF"/>
<path d="M725.298 284.837C726.743 279.616 725.794 274.857 723.179 274.209C720.563 273.561 717.272 277.268 715.828 282.489C714.383 287.711 715.332 292.469 717.947 293.117C720.563 293.766 723.854 290.059 725.298 284.837Z" fill="#FF73FF"/>
<path d="M754.404 292.297C755.848 287.076 754.899 282.317 752.284 281.669C749.669 281.021 746.378 284.728 744.933 289.949C743.488 295.171 744.437 299.929 747.053 300.577C749.668 301.226 752.959 297.519 754.404 292.297Z" fill="#FF73FF"/>
<path d="M699.619 298.582L699.603 298.798C697.67 314.598 707.541 329.295 722.531 332.988C737.52 336.681 753.844 328.429 760.482 313.787L760.56 313.587L757.924 312.449L757.847 312.648C751.811 325.962 736.979 333.483 723.328 330.102C709.688 326.741 700.728 313.376 702.474 299L702.491 298.784L699.609 298.562L699.619 298.582Z" fill="#FF73FF"/>
<path d="M1083.46 348.064C1083.98 348.204 1084.32 348.244 1084.38 348.261C1085.19 348.362 1085.96 347.789 1086.09 346.96C1086.23 346.131 1085.7 345.375 1084.89 345.274C1084.83 345.258 1080.09 344.55 1077.68 340.43C1077.26 339.74 1076.37 339.531 1075.64 339.978C1074.91 340.426 1074.69 341.352 1075.1 342.074C1077.54 346.202 1081.61 347.63 1083.44 348.075L1083.46 348.064Z" fill="#FF0020"/>
<path d="M1016.95 331.075C1018.77 331.518 1023.07 332.158 1027.33 329.678C1028.05 329.264 1028.33 328.327 1027.96 327.617C1027.58 326.906 1026.67 326.659 1025.95 327.073C1021.66 329.545 1017.22 327.986 1017.18 327.958C1016.41 327.681 1015.56 328.094 1015.24 328.869C1014.93 329.665 1015.3 330.509 1016.05 330.797C1016.11 330.813 1016.43 330.915 1016.94 331.055L1016.95 331.075Z" fill="#FF0020"/>
<path d="M1007 323.924C1014.15 298.577 1040.07 282.868 1064.72 288.906C1089.39 294.932 1103.62 320.488 1096.46 345.815C1089.31 371.162 1063.4 386.871 1038.75 380.834C1014.08 374.808 999.843 349.252 1007 323.924ZM1009.85 324.625C1003.15 348.347 1016.47 372.266 1039.58 377.905C1062.66 383.555 1086.92 368.856 1093.61 345.114C1100.32 321.392 1086.99 297.473 1063.89 291.835C1040.8 286.185 1016.55 300.883 1009.85 324.625Z" fill="#FF0020"/>
<path d="M1061.96 316.047C1063.41 310.826 1062.46 306.067 1059.84 305.419C1057.23 304.771 1053.94 308.478 1052.49 313.699C1051.05 318.921 1052 323.679 1054.61 324.327C1057.23 324.976 1060.52 321.269 1061.96 316.047Z" fill="#FF0020"/>
<path d="M1046.02 317.156C1047.46 311.934 1046.51 307.176 1043.9 306.527C1041.28 305.879 1037.99 309.586 1036.55 314.808C1035.1 320.029 1036.05 324.787 1038.67 325.436C1041.28 326.084 1044.57 322.377 1046.02 317.156Z" fill="#FF0020"/>
<path d="M1075.12 324.616C1076.57 319.394 1075.62 314.636 1073 313.987C1070.39 313.339 1067.1 317.046 1065.65 322.267C1064.21 327.489 1065.16 332.247 1067.77 332.896C1070.39 333.544 1073.68 329.837 1075.12 324.616Z" fill="#FF0020"/>
<path d="M1020.34 330.9L1020.32 331.116C1018.39 346.916 1028.26 361.613 1043.25 365.307C1058.24 369 1074.56 360.748 1081.2 346.105L1081.28 345.906L1078.64 344.767L1078.57 344.966C1072.53 358.281 1057.7 365.802 1044.05 362.421C1030.41 359.059 1021.45 345.695 1023.19 331.318L1023.21 331.103L1020.33 330.88L1020.34 330.9Z" fill="#FF0020"/>
<path d="M1072.46 441.574C1072.98 441.715 1073.32 441.755 1073.38 441.772C1074.19 441.873 1074.96 441.3 1075.09 440.471C1075.23 439.641 1074.7 438.886 1073.89 438.785C1073.83 438.768 1069.09 438.061 1066.68 433.941C1066.26 433.25 1065.37 433.042 1064.64 433.489C1063.91 433.936 1063.69 434.863 1064.1 435.585C1066.54 439.713 1070.61 441.141 1072.44 441.586L1072.46 441.574Z" fill="#0DA05D"/>
<path d="M1005.95 424.586C1007.77 425.029 1012.07 425.669 1016.33 423.189C1017.05 422.775 1017.33 421.838 1016.96 421.127C1016.58 420.417 1015.67 420.17 1014.95 420.584C1010.66 423.056 1006.22 421.497 1006.18 421.469C1005.41 421.192 1004.56 421.604 1004.24 422.38C1003.93 423.176 1004.3 424.019 1005.05 424.307C1005.11 424.324 1005.43 424.426 1005.94 424.566L1005.95 424.586Z" fill="#0DA05D"/>
<path d="M996.004 417.435C1003.15 392.088 1029.07 376.379 1053.72 382.417C1078.39 388.442 1092.62 413.998 1085.46 439.326C1078.31 464.673 1052.4 480.382 1027.75 474.344C1003.08 468.319 988.843 442.763 996.004 417.435ZM998.854 418.136C992.151 441.858 1005.47 465.777 1028.58 471.415C1051.66 477.065 1075.92 462.367 1082.61 438.625C1089.32 414.903 1075.99 390.984 1052.89 385.346C1029.8 379.696 1005.55 394.394 998.854 418.136Z" fill="#0DA05D"/>
<path d="M1050.96 409.558C1052.41 404.337 1051.46 399.578 1048.84 398.93C1046.23 398.281 1042.94 401.988 1041.49 407.21C1040.05 412.431 1041 417.19 1043.61 417.838C1046.23 418.487 1049.52 414.779 1050.96 409.558Z" fill="#0DA05D"/>
<path d="M1035.02 410.666C1036.46 405.445 1035.51 400.687 1032.9 400.038C1030.28 399.39 1026.99 403.097 1025.55 408.318C1024.1 413.54 1025.05 418.298 1027.67 418.947C1030.28 419.595 1033.57 415.888 1035.02 410.666Z" fill="#0DA05D"/>
<path d="M1064.12 418.126C1065.57 412.905 1064.62 408.147 1062 407.498C1059.39 406.85 1056.1 410.557 1054.65 415.778C1053.21 421 1054.16 425.758 1056.77 426.406C1059.39 427.055 1062.68 423.348 1064.12 418.126Z" fill="#0DA05D"/>
<path d="M1009.34 424.411L1009.32 424.627C1007.39 440.427 1017.26 455.124 1032.25 458.817C1047.24 462.51 1063.56 454.258 1070.2 439.616L1070.28 439.416L1067.64 438.278L1067.57 438.477C1061.53 451.791 1046.7 459.312 1033.05 455.931C1019.41 452.57 1010.45 439.206 1012.19 424.829L1012.21 424.613L1009.33 424.391L1009.34 424.411Z" fill="#0DA05D"/>
<path d="M1155 380.997C1155.48 380.763 1155.76 380.574 1155.82 380.547C1156.5 380.092 1156.71 379.156 1156.28 378.441C1155.85 377.726 1154.97 377.503 1154.29 377.958C1154.23 377.985 1150.2 380.555 1145.73 379.028C1144.97 378.78 1144.16 379.208 1143.89 380.024C1143.63 380.84 1144.06 381.681 1144.83 381.959C1149.33 383.472 1153.32 381.881 1154.99 381.019L1155 380.997Z" fill="#5757FF"/>
<path d="M1093.9 413.094C1095.58 412.227 1099.27 409.873 1100.91 405.165C1101.19 404.375 1100.8 403.471 1100.06 403.178C1099.31 402.885 1098.45 403.3 1098.17 404.09C1096.5 408.813 1092.1 410.563 1092.05 410.568C1091.28 410.867 1090.9 411.744 1091.16 412.546C1091.44 413.356 1092.27 413.756 1093.03 413.479C1093.09 413.451 1093.39 413.321 1093.88 413.086L1093.9 413.094Z" fill="#5757FF"/>
<path d="M1081.55 413.363C1070.53 389.463 1080.01 360.622 1102.65 349.107C1125.29 337.57 1152.69 347.659 1163.69 371.55C1174.71 395.449 1165.23 424.291 1142.59 435.806C1119.95 447.343 1092.55 437.253 1081.55 413.363ZM1084.17 412.033C1094.47 434.407 1120.11 443.852 1141.32 433.041C1162.52 422.252 1171.4 395.261 1161.07 372.879C1150.77 350.506 1125.12 341.06 1103.92 351.871C1082.72 362.66 1073.84 389.651 1084.17 412.033Z" fill="#5757FF"/>
<path d="M1118.57 371.332C1116.35 366.4 1112.61 363.407 1110.21 364.648C1107.81 365.888 1107.66 370.892 1109.88 375.824C1112.1 380.757 1115.84 383.749 1118.24 382.509C1120.64 381.268 1120.79 376.264 1118.57 371.332Z" fill="#5757FF"/>
<path d="M1107.18 382.983C1104.96 378.051 1101.22 375.058 1098.82 376.299C1096.42 377.54 1096.27 382.544 1098.49 387.476C1100.71 392.408 1104.45 395.401 1106.85 394.16C1109.25 392.919 1109.4 387.915 1107.18 382.983Z" fill="#5757FF"/>
<path d="M1133.92 368.903C1131.7 363.971 1127.96 360.978 1125.56 362.219C1123.16 363.46 1123.01 368.464 1125.23 373.396C1127.45 378.328 1131.19 381.32 1133.59 380.08C1135.99 378.839 1136.14 373.835 1133.92 368.903Z" fill="#5757FF"/>
<path d="M1096.08 410.156L1096.2 410.33C1104.93 423.581 1121.9 428.222 1135.67 421.152C1149.44 414.082 1156.52 397.077 1152.12 381.606L1152.05 381.404L1149.32 382.276L1149.39 382.478C1153.39 396.546 1146.97 412.014 1134.42 418.439C1121.89 424.873 1106.46 420.641 1098.52 408.593L1098.39 408.419L1096.06 410.148L1096.08 410.156Z" fill="#5757FF"/>
<path d="M520.416 328.465C520.963 328.411 521.284 328.325 521.333 328.314C522.138 328.136 522.611 327.329 522.382 326.541C522.175 325.757 521.352 325.242 520.569 325.425C520.498 325.431 515.814 326.44 511.877 323.584C511.21 323.106 510.275 323.23 509.808 323.901C509.34 324.571 509.497 325.481 510.187 325.964C514.169 328.831 518.552 328.692 520.438 328.471L520.416 328.465Z" fill="#FF0020"/>
<path d="M451.647 337.653C453.538 337.43 457.802 336.473 460.765 332.708C461.274 332.065 461.143 331.132 460.483 330.605C459.824 330.078 458.891 330.181 458.382 330.825C455.415 334.612 450.6 334.744 450.556 334.733C449.736 334.747 449.102 335.43 449.14 336.249C449.178 337.068 449.881 337.721 450.701 337.707C450.746 337.718 451.103 337.687 451.651 337.631L451.647 337.653Z" fill="#FF0020"/>
<path d="M439.087 333.733C435.062 308.174 452.611 284.908 478.225 281.876C503.838 278.844 527.958 297.157 531.983 322.715C536.009 348.274 518.46 371.54 492.846 374.572C467.232 377.604 443.113 359.291 439.087 333.733ZM442.043 333.384C445.822 357.314 468.405 374.45 492.36 371.618C516.342 368.77 532.762 346.984 529.001 323.081C525.222 299.15 502.639 282.014 478.684 284.846C454.729 287.678 438.281 309.48 442.043 333.384Z" fill="#FF0020"/>
<path d="M484.008 317.502C486.713 317.178 488.256 312.608 487.454 307.295C486.652 301.983 483.81 297.939 481.105 298.264C478.4 298.588 476.857 303.158 477.659 308.471C478.461 313.784 481.304 317.827 484.008 317.502Z" fill="#FF0020"/>
<path d="M469.648 324.504C472.353 324.18 473.896 319.61 473.094 314.297C472.292 308.985 469.45 304.941 466.745 305.266C464.04 305.59 462.498 310.16 463.299 315.473C464.101 320.786 466.944 324.829 469.648 324.504Z" fill="#FF0020"/>
<path d="M499.688 320.459C502.393 320.134 503.935 315.564 503.133 310.251C502.332 304.939 499.489 300.895 496.784 301.22C494.08 301.544 492.537 306.114 493.339 311.427C494.141 316.74 496.983 320.783 499.688 320.459Z" fill="#FF0020"/>
<path d="M454.477 335.825L454.551 336.027C459.364 351.069 474.684 360.954 490.206 359.015C505.728 357.076 517.498 343.811 517.57 328.169L517.568 327.96L514.648 327.87L514.651 328.078C514.572 342.31 503.893 354.379 489.762 356.139C475.652 357.904 461.71 348.899 457.331 335.23L457.257 335.027L454.473 335.847L454.477 335.825Z" fill="#FF0020"/>
<path d="M498.287 451.439C498.668 451.854 498.92 452.1 498.96 452.133C499.567 452.694 500.532 452.668 501.077 452.078C501.622 451.488 501.589 450.529 500.96 449.962C500.92 449.929 497.353 446.532 497.481 441.691C497.515 440.864 496.846 440.149 496.034 440.119C495.222 440.088 494.507 440.708 494.5 441.518C494.368 446.381 497.026 449.981 498.314 451.423L498.287 451.439Z" fill="#1A1A1A"/>
<path d="M451.882 398.595C453.165 400.027 456.41 403.098 461.251 403.573C462.073 403.652 462.781 403.059 462.836 402.243C462.891 401.426 462.274 400.705 461.452 400.626C456.59 400.145 453.712 396.217 453.694 396.189C453.206 395.521 452.264 395.345 451.607 395.811C450.949 396.278 450.799 397.21 451.288 397.879C451.323 397.933 451.521 398.21 451.9 398.622L451.882 398.595Z" fill="#1A1A1A"/>
<path d="M447.147 386.378C466.308 369.774 496.094 372.245 513.558 391.907C531.022 411.57 529.658 441.065 510.497 457.67C491.336 474.274 461.549 471.803 444.085 452.14C426.621 432.478 427.986 402.983 447.147 386.378ZM449.155 388.661C431.224 404.201 429.944 431.826 446.288 450.226C462.632 468.627 490.53 470.943 508.461 455.403C526.393 439.864 527.672 412.239 511.328 393.838C494.984 375.438 467.086 373.122 449.155 388.661Z" fill="#1A1A1A"/>
<path d="M497.374 412.465C501.285 409.018 502.945 404.487 501.081 402.346C499.218 400.204 494.536 401.262 490.625 404.709C486.713 408.157 485.053 412.687 486.917 414.829C488.781 416.971 493.462 415.912 497.374 412.465Z" fill="#1A1A1A"/>
<path d="M483.501 404.155C487.412 400.707 489.072 396.177 487.208 394.035C485.345 391.893 480.663 392.952 476.752 396.399C472.84 399.846 471.18 404.377 473.044 406.518C474.908 408.66 479.589 407.602 483.501 404.155Z" fill="#1A1A1A"/>
<path d="M503.756 427.239C507.667 423.791 509.327 419.261 507.463 417.119C505.599 414.977 500.918 416.036 497.006 419.483C493.095 422.93 491.435 427.461 493.299 429.602C495.163 431.744 499.844 430.686 503.756 427.239Z" fill="#1A1A1A"/>
<path d="M454.669 400.233L454.543 400.388C444.701 412.334 445.238 430.327 455.784 442.244C466.353 454.166 484.25 456.995 497.413 448.798L497.601 448.68L495.999 446.195L495.811 446.312C483.834 453.749 467.562 451.19 457.957 440.352C448.351 429.514 447.872 413.132 456.832 402.272L456.958 402.117L454.674 400.21L454.669 400.233Z" fill="#1A1A1A"/>
<path d="M913.585 398.718C914.043 398.434 914.31 398.219 914.357 398.17C915.001 397.657 915.092 396.705 914.582 396.056C914.072 395.407 913.141 395.299 912.497 395.812C912.45 395.861 908.644 398.811 903.92 397.885C903.1 397.726 902.328 398.242 902.17 399.066C902.012 399.891 902.525 400.669 903.345 400.828C908.101 401.753 911.992 399.735 913.601 398.702L913.585 398.718Z" fill="#1A1A1A"/>
<path d="M855.366 436.179C856.956 435.163 860.423 432.434 861.548 427.7C861.738 426.908 861.241 426.084 860.455 425.892C859.668 425.701 858.849 426.201 858.659 426.993C857.519 431.744 853.274 433.943 853.227 433.961C852.501 434.33 852.201 435.237 852.569 435.968C852.936 436.699 853.836 437.001 854.562 436.631C854.593 436.598 854.925 436.446 855.365 436.147L855.366 436.179Z" fill="#1A1A1A"/>
<path d="M842.689 438.641C828.801 416.819 835.145 387.69 856.852 373.662C878.559 359.667 907.509 366.016 921.429 387.837C935.318 409.658 928.974 438.787 907.267 452.815C885.559 466.811 856.61 460.461 842.689 438.641ZM845.201 437.021C858.211 457.46 885.326 463.401 905.659 450.29C925.992 437.18 931.928 409.896 918.917 389.457C905.907 369.017 878.792 363.077 858.459 376.187C838.126 389.298 832.191 416.581 845.201 437.021Z" fill="#1A1A1A"/>
<path d="M866.769 398.627C869.628 403.1 873.839 405.51 876.174 404.009C878.509 402.509 878.084 397.666 875.225 393.192C872.366 388.719 868.155 386.309 865.82 387.81C863.485 389.311 863.91 394.153 866.769 398.627Z" fill="#1A1A1A"/>
<path d="M856.713 411.07C859.572 415.543 863.783 417.953 866.118 416.453C868.453 414.952 868.028 410.109 865.169 405.636C862.31 401.162 858.099 398.753 855.764 400.253C853.429 401.754 853.854 406.597 856.713 411.07Z" fill="#1A1A1A"/>
<path d="M882.122 394.705C884.982 399.178 889.192 401.588 891.527 400.087C893.862 398.587 893.437 393.744 890.578 389.271C887.719 384.797 883.509 382.387 881.174 383.888C878.839 385.389 879.263 390.232 882.122 394.705Z" fill="#1A1A1A"/>
<path d="M857.303 433.628L857.45 433.77C867.844 445.542 885.624 447.997 898.799 439.501C911.974 431.004 917.171 413.722 910.906 399.284L910.821 399.077L908.146 400.246L908.23 400.453C913.939 413.568 909.219 429.295 897.226 437.041C885.249 444.772 869.088 442.522 859.629 431.839L859.483 431.698L857.32 433.644L857.303 433.628Z" fill="#1A1A1A"/>
<path d="M782.003 383.016C781.677 383.457 781.509 383.767 781.494 383.815C781.094 384.532 781.338 385.459 782.05 385.861C782.761 386.263 783.682 386.017 784.081 385.301C784.128 385.252 786.559 381.082 791.297 380.205C792.108 380.043 792.65 379.275 792.488 378.459C792.327 377.642 791.564 377.097 790.754 377.259C785.999 378.153 783.119 381.48 782.019 383.032L782.003 383.016Z" fill="#0DA05D"/>
<path d="M822.199 326.4C821.098 327.953 818.863 331.752 819.546 336.565C819.66 337.399 820.408 337.962 821.221 337.832C822.049 337.717 822.608 336.964 822.478 336.146C821.796 331.301 824.962 327.674 824.993 327.641C825.539 327.034 825.486 326.069 824.882 325.52C824.278 324.97 823.32 325.023 822.774 325.63C822.742 325.663 822.492 325.926 822.183 326.384L822.199 326.4Z" fill="#0DA05D"/>
<path d="M833.198 319.556C854.119 334.676 858.88 364.116 843.81 385.163C828.757 406.225 799.486 411.048 778.581 395.912C757.66 380.792 752.898 351.351 767.968 330.305C783.038 309.258 812.293 304.419 833.198 319.556ZM831.456 321.98C811.885 307.812 784.465 312.335 770.376 332.054C756.27 351.758 760.736 379.336 780.323 393.487C799.893 407.655 827.313 403.132 841.403 383.413C855.508 363.709 851.042 336.131 831.456 321.98Z" fill="#0DA05D"/>
<path d="M814.697 364.203C813.079 366.471 815.242 370.827 819.529 373.933C823.816 377.039 828.603 377.718 830.221 375.451C831.839 373.183 829.676 368.827 825.389 365.721C821.103 362.615 816.316 361.936 814.697 364.203Z" fill="#0DA05D"/>
<path d="M819.475 348.839C817.857 351.107 820.02 355.463 824.307 358.569C828.594 361.675 833.381 362.354 834.999 360.086C836.617 357.819 834.454 353.463 830.167 350.357C825.881 347.251 821.093 346.571 819.475 348.839Z" fill="#0DA05D"/>
<path d="M801.914 373.598C800.296 375.865 802.459 380.222 806.746 383.327C811.033 386.433 815.82 387.113 817.438 384.845C819.056 382.578 816.893 378.221 812.606 375.116C808.319 372.01 803.532 371.33 801.914 373.598Z" fill="#0DA05D"/>
<path d="M821.448 329.558L821.254 329.466C807.277 322.392 789.86 326.702 780.731 339.467C771.586 352.247 773.085 370.245 784.195 381.323L784.342 381.464L786.389 379.376L786.242 379.235C776.161 369.148 774.793 352.788 783.101 341.151C791.392 329.532 807.236 325.626 819.953 332.052L820.147 332.144L821.447 329.526L821.448 329.558Z" fill="#0DA05D"/>
<path d="M803.235 486.022C803.391 486.55 803.526 486.87 803.544 486.918C803.881 487.684 804.753 488.019 805.498 487.696C806.243 487.374 806.592 486.48 806.271 485.73C806.238 485.666 804.393 481.179 806.522 476.831C806.89 476.082 806.582 475.186 805.837 474.816C805.092 474.446 804.203 474.755 803.835 475.505C801.69 479.87 802.619 484.199 803.203 486.023L803.235 486.022Z" fill="#B6B6B6"/>
<path d="M781.963 419.134C782.549 420.963 784.245 425.063 788.503 427.393C789.218 427.798 790.143 427.519 790.545 426.799C790.946 426.079 790.669 425.147 789.953 424.743C785.663 422.381 784.675 417.635 784.658 417.587C784.496 416.766 783.698 416.25 782.883 416.414C782.067 416.578 781.555 417.381 781.718 418.202C781.735 418.25 781.807 418.604 781.963 419.134Z" fill="#B6B6B6"/>
<path d="M783.228 406.512C807.806 398.686 834.112 412.459 841.847 437.159C849.599 461.875 835.879 488.353 811.316 496.162C786.738 503.988 760.433 490.215 752.697 465.515C744.945 440.798 758.665 414.321 783.228 406.512ZM784.122 409.359C761.118 416.682 748.29 441.463 755.528 464.612C762.782 487.745 787.403 500.621 810.423 493.314C833.426 485.992 846.254 461.21 839.016 438.061C831.762 414.929 807.141 402.052 784.122 409.359Z" fill="#B6B6B6"/>
<path d="M807.486 448.166C808.32 450.806 813.08 451.663 818.117 450.08C823.154 448.497 826.561 445.074 825.726 442.435C824.891 439.795 820.132 438.938 815.095 440.521C810.058 442.104 806.651 445.527 807.486 448.166Z" fill="#B6B6B6"/>
<path d="M798.093 434.944C798.927 437.583 803.687 438.44 808.724 436.857C813.761 435.274 817.168 431.852 816.333 429.212C815.498 426.572 810.739 425.716 805.702 427.298C800.665 428.881 797.258 432.304 798.093 434.944Z" fill="#B6B6B6"/>
<path d="M807.403 464.187C808.237 466.826 812.997 467.683 818.034 466.1C823.071 464.518 826.478 461.095 825.643 458.455C824.808 455.816 820.049 454.959 815.012 456.542C809.975 458.124 806.568 461.547 807.403 464.187Z" fill="#B6B6B6"/>
<path d="M784.278 421.803L784.087 421.904C770.059 428.971 763.039 445.626 767.764 460.684C772.489 475.741 787.752 485.324 803.265 483.031L803.473 483.01L803.039 480.1L802.832 480.121C788.725 482.222 774.844 473.496 770.534 459.816C766.24 446.12 772.62 430.963 785.396 424.553L785.586 424.452L784.278 421.835L784.278 421.803Z" fill="#B6B6B6"/>
<path d="M820.83 557.943C821.363 558.077 821.701 558.118 821.765 558.116C822.586 558.211 823.344 557.645 823.438 556.818C823.532 555.992 822.97 555.229 822.149 555.134C822.085 555.135 817.301 554.417 814.691 550.322C814.242 549.637 813.322 549.415 812.626 549.883C811.93 550.35 811.726 551.26 812.19 551.961C814.817 556.072 818.991 557.499 820.846 557.926L820.83 557.943Z" fill="#B6B6B6"/>
<path d="M753.228 541.294C755.062 541.737 759.414 542.366 763.602 539.906C764.313 539.487 764.549 538.58 764.133 537.864C763.717 537.149 762.815 536.911 762.104 537.329C757.901 539.806 753.352 538.231 753.32 538.231C752.545 537.959 751.69 538.364 751.419 539.143C751.148 539.922 751.551 540.783 752.326 541.056C752.374 541.071 752.697 541.193 753.244 541.31L753.228 541.294Z" fill="#B6B6B6"/>
<path d="M742.904 534.04C748.915 508.817 774.175 493.194 799.241 499.181C824.308 505.2 839.81 530.593 833.831 555.815C827.82 581.038 802.559 596.661 777.493 590.675C752.427 584.655 736.924 559.262 742.904 534.04ZM745.802 534.747C740.188 558.366 754.695 582.139 778.168 587.759C801.64 593.379 825.288 578.76 830.902 555.141C836.515 531.522 822.008 507.75 798.535 502.129C775.063 496.509 751.415 511.129 745.802 534.747Z" fill="#B6B6B6"/>
<path d="M788.176 523.895C786.948 529.071 788.109 533.782 790.77 534.418C793.431 535.054 796.584 531.374 797.812 526.198C799.04 521.023 797.879 516.312 795.218 515.676C792.557 515.04 789.404 518.72 788.176 523.895Z" fill="#B6B6B6"/>
<path d="M772.18 525.082C770.952 530.257 772.113 534.968 774.774 535.604C777.435 536.24 780.588 532.56 781.816 527.385C783.044 522.209 781.883 517.498 779.222 516.862C776.561 516.226 773.408 519.906 772.18 525.082Z" fill="#B6B6B6"/>
<path d="M801.748 532.372C800.52 537.547 801.682 542.258 804.342 542.894C807.003 543.53 810.156 539.85 811.384 534.675C812.613 529.499 811.451 524.788 808.79 524.152C806.13 523.516 802.977 527.196 801.748 532.372Z" fill="#B6B6B6"/>
<path d="M756.576 540.998L756.564 541.208C755.374 556.943 765.972 571.595 781.23 575.243C796.489 578.923 812.51 570.683 818.501 556.101L818.593 555.905L815.892 554.788L815.8 554.983C810.34 568.247 795.778 575.745 781.904 572.39C768.032 569.066 758.393 555.747 759.486 541.434L759.498 541.224L756.576 540.998Z" fill="#B6B6B6"/>
<path d="M840.406 517.643C839.915 517.896 839.631 518.063 839.568 518.097C838.873 518.531 838.67 519.469 839.101 520.169C839.533 520.868 840.466 521.073 841.161 520.639C841.208 520.589 845.33 518.098 849.925 519.56C850.715 519.816 851.553 519.363 851.792 518.584C852.031 517.806 851.595 516.946 850.822 516.705C846.195 515.244 842.1 516.817 840.39 517.66L840.406 517.643Z" fill="#B6B6B6"/>
<path d="M902.506 487.038C900.802 487.879 897.087 490.18 895.432 494.748C895.162 495.525 895.548 496.368 896.32 496.673C897.092 496.945 897.929 496.556 898.231 495.778C899.885 491.178 904.363 489.487 904.41 489.47C905.186 489.179 905.566 488.319 905.294 487.554C905.005 486.773 904.151 486.39 903.392 486.664C903.344 486.682 903.012 486.801 902.523 487.053L902.506 487.038Z" fill="#B6B6B6"/>
<path d="M915.329 486.006C926.701 509.254 917.151 537.506 893.996 548.973C870.873 560.439 842.799 550.863 831.426 527.583C820.053 504.335 829.604 476.083 852.759 464.616C875.882 453.15 903.955 462.726 915.329 486.006ZM912.65 487.34C901.998 465.574 875.731 456.602 854.066 467.326C832.401 478.05 823.468 504.499 834.105 526.281C844.757 548.048 871.024 557.02 892.689 546.296C914.338 535.556 923.287 509.123 912.65 487.34Z" fill="#B6B6B6"/>
<path d="M877.97 527.483C880.313 532.248 884.232 535.116 886.722 533.89C889.212 532.665 889.33 527.808 886.987 523.043C884.643 518.279 880.725 515.41 878.235 516.636C875.745 517.862 875.626 522.718 877.97 527.483Z" fill="#B6B6B6"/>
<path d="M889.372 516.262C891.715 521.027 895.634 523.896 898.124 522.67C900.614 521.444 900.732 516.587 898.389 511.823C896.045 507.058 892.127 504.189 889.637 505.415C887.147 506.641 887.028 511.497 889.372 516.262Z" fill="#B6B6B6"/>
<path d="M862.239 529.616C864.583 534.38 868.501 537.249 870.991 536.023C873.481 534.797 873.6 529.941 871.256 525.176C868.913 520.411 864.995 517.543 862.505 518.769C860.015 519.995 859.896 524.851 862.239 529.616Z" fill="#B6B6B6"/>
<path d="M900.263 489.345L900.148 489.171C891.117 476.318 873.701 471.858 859.671 478.815C845.641 485.771 838.541 502.36 843.159 517.419L843.211 517.627L846.007 516.76L845.954 516.552C841.75 502.869 848.212 487.775 860.96 481.442C873.725 475.125 889.549 479.185 897.755 490.865L897.87 491.04L900.248 489.362L900.263 489.345Z" fill="#B6B6B6"/>
<path d="M987.498 248.263C987.613 247.713 987.654 247.375 987.669 247.326C987.762 246.504 987.155 245.762 986.355 245.683C985.538 245.589 984.801 246.2 984.723 247.006C984.725 247.07 984.128 251.875 980.147 254.584C979.455 255.049 979.284 255.986 979.762 256.666C980.24 257.347 981.155 257.536 981.831 257.055C985.827 254.329 987.123 250.104 987.529 248.23L987.498 248.263Z" fill="#5757FF"/>
<path d="M973.371 316.641C973.762 314.779 974.289 310.366 971.731 306.23C971.298 305.53 970.38 305.309 969.685 305.743C968.99 306.178 968.77 307.102 969.202 307.801C971.762 311.969 970.326 316.579 970.311 316.628C970.056 317.424 970.475 318.269 971.266 318.525C972.057 318.782 972.896 318.361 973.151 317.565C973.166 317.516 973.271 317.175 973.387 316.657L973.371 316.641Z" fill="#5757FF"/>
<path d="M965.962 327.175C940.764 321.755 924.661 296.73 930.061 271.392C935.477 246.038 960.356 229.795 985.554 235.215C1010.75 240.635 1026.87 265.644 1021.45 290.998C1016.04 316.352 991.16 332.595 965.962 327.175ZM966.588 324.245C990.177 329.315 1013.49 314.122 1018.54 290.372C1023.61 266.636 1008.53 243.199 984.928 238.145C961.339 233.075 938.023 248.268 932.974 272.018C927.907 295.754 942.984 319.191 966.588 324.245Z" fill="#5757FF"/>
<path d="M946.469 274.788C945.896 277.465 949.639 280.541 954.828 281.657C960.017 282.773 964.688 281.508 965.261 278.83C965.833 276.152 962.091 273.077 956.901 271.96C951.712 270.844 947.041 272.11 946.469 274.788Z" fill="#5757FF"/>
<path d="M948.238 290.877C947.666 293.555 951.408 296.631 956.597 297.747C961.787 298.863 966.458 297.598 967.03 294.92C967.603 292.242 963.86 289.166 958.671 288.05C953.482 286.934 948.811 288.2 948.238 290.877Z" fill="#5757FF"/>
<path d="M954.381 260.984C953.809 263.662 957.551 266.737 962.741 267.853C967.93 268.97 972.601 267.704 973.173 265.026C973.746 262.348 970.003 259.273 964.814 258.157C959.625 257.04 954.954 258.306 954.381 260.984Z" fill="#5757FF"/>
<path d="M972.645 313.319L972.854 313.33C988.49 314.177 1002.74 303.171 1006.02 287.768C1009.29 272.366 1000.75 256.451 986.126 250.782L985.917 250.706L984.873 253.451L985.083 253.527C998.367 258.693 1006.16 273.159 1003.17 287.171C1000.19 301.182 987.239 311.177 972.997 310.412L972.789 310.401L972.63 313.335L972.645 313.319Z" fill="#5757FF"/>
<path d="M829.809 596.891C829.264 596.903 828.928 596.959 828.864 596.96C828.049 597.091 827.489 597.846 827.619 598.666C827.749 599.486 828.499 600.051 829.314 599.92C829.378 599.918 834.175 599.264 837.806 602.476C838.427 603.011 839.356 602.958 839.919 602.332C840.483 601.707 840.398 600.773 839.776 600.205C836.113 596.994 831.73 596.784 829.824 596.874L829.809 596.891Z" fill="#B6B6B6"/>
<path d="M899.145 594.144C897.244 594.235 892.893 594.83 889.566 598.363C889.004 598.954 889.025 599.919 889.613 600.486C890.201 601.052 891.16 601.031 891.722 600.439C895.081 596.905 899.866 597.137 899.915 597.152C900.747 597.198 901.437 596.572 901.498 595.75C901.544 594.912 900.921 594.218 900.104 594.155C900.04 594.157 899.704 594.148 899.161 594.16L899.145 594.144Z" fill="#B6B6B6"/>
<path d="M911.179 598.259C912.326 624.157 892.28 646.186 866.55 647.352C840.805 648.534 818.928 628.393 817.797 602.511C816.651 576.614 836.697 554.584 862.427 553.418C888.172 552.236 910.049 572.377 911.179 598.259ZM908.203 598.391C907.14 574.151 886.668 555.299 862.555 556.412C838.457 557.508 819.694 578.123 820.774 602.379C821.837 626.619 842.309 645.471 866.422 644.358C890.519 643.262 909.282 622.647 908.203 598.391Z" fill="#B6B6B6"/>
<path d="M860.437 621.074C860.684 626.367 863.141 630.564 865.926 630.448C868.71 630.333 870.767 625.949 870.52 620.656C870.273 615.363 867.816 611.166 865.032 611.281C862.247 611.397 860.19 615.781 860.437 621.074Z" fill="#B6B6B6"/>
<path d="M875.427 615.507C875.674 620.799 878.131 624.997 880.916 624.881C883.7 624.766 885.757 620.381 885.51 615.088C885.263 609.796 882.806 605.599 880.021 605.714C877.237 605.829 875.18 610.214 875.427 615.507Z" fill="#B6B6B6"/>
<path d="M845.09 616.694C845.337 621.987 847.795 626.184 850.579 626.069C853.364 625.953 855.421 621.569 855.174 616.276C854.927 610.983 852.469 606.786 849.685 606.901C846.901 607.017 844.843 611.401 845.09 616.694Z" fill="#B6B6B6"/>
<path d="M896.084 595.339L896.031 595.13C892.886 579.682 878.693 568.57 863.048 569.269C847.403 569.968 834.257 582.311 832.491 597.98L832.479 598.189L835.385 598.528L835.397 598.318C837.002 584.071 848.939 572.835 863.193 572.215C877.431 571.579 890.321 581.689 893.194 595.741L893.247 595.949L896.1 595.354L896.084 595.339Z" fill="#B6B6B6"/>
<path d="M949.079 404.979C948.85 405.483 948.762 405.806 948.747 405.854C948.493 406.648 948.942 407.489 949.729 407.713C950.5 407.953 951.352 407.516 951.59 406.739C951.621 406.674 953.115 402.077 957.525 400.195C958.268 399.873 958.632 398.997 958.296 398.234C957.96 397.47 957.107 397.119 956.348 397.457C951.907 399.372 949.822 403.243 949.063 404.996L949.079 404.979Z" fill="#FF73FF"/>
<path d="M976.065 340.762C975.303 342.518 973.972 346.72 975.674 351.289C975.963 352.072 976.82 352.456 977.598 352.165C978.376 351.874 978.757 351.012 978.467 350.229C976.749 345.644 979.056 341.405 979.088 341.372C979.488 340.654 979.228 339.742 978.514 339.339C977.801 338.936 976.894 339.197 976.494 339.915C976.463 339.948 976.31 340.273 976.081 340.778L976.065 340.762Z" fill="#FF73FF"/>
<path d="M985.362 331.783C1009.05 341.99 1020.05 369.677 1009.87 393.513C999.701 417.348 972.166 428.447 948.483 418.24C924.801 408.032 913.798 380.345 923.971 356.51C934.144 332.675 961.68 321.575 985.362 331.783ZM984.188 334.532C962.009 324.983 936.236 335.382 926.719 357.672C917.202 379.994 927.51 405.908 949.657 415.458C971.836 425.007 997.609 414.608 1007.13 392.318C1016.64 370.029 1006.33 344.082 984.188 334.532Z" fill="#FF73FF"/>
<path d="M976.893 379.422C975.799 381.998 978.842 385.782 983.69 387.875C988.537 389.967 993.353 389.576 994.447 387C995.541 384.424 992.498 380.64 987.65 378.547C982.803 376.455 977.987 376.846 976.893 379.422Z" fill="#FF73FF"/>
<path d="M978.224 363.326C977.13 365.902 980.173 369.687 985.02 371.779C989.868 373.872 994.684 373.48 995.777 370.904C996.871 368.328 993.828 364.544 988.981 362.451C984.134 360.359 979.317 360.751 978.224 363.326Z" fill="#FF73FF"/>
<path d="M966.455 391.385C965.361 393.961 968.404 397.745 973.252 399.838C978.099 401.93 982.915 401.539 984.009 398.963C985.103 396.387 982.06 392.602 977.212 390.51C972.365 388.417 967.549 388.809 966.455 391.385Z" fill="#FF73FF"/>
<path d="M976.097 344.107L975.888 344.063C960.707 340.213 944.622 348.213 938.465 362.689C932.309 377.165 937.648 394.429 950.882 402.828L951.061 402.937L952.605 400.456L952.427 400.348C940.392 392.695 935.52 377.014 941.129 363.838C946.723 350.678 961.37 343.402 975.167 346.895L975.376 346.939L976.08 344.091L976.097 344.107Z" fill="#FF73FF"/>
<path d="M856.044 320.761C855.502 320.87 855.167 320.958 855.119 320.975C854.339 321.202 853.877 322.051 854.103 322.836C854.329 323.621 855.157 324.103 855.953 323.86C856 323.843 860.668 322.562 864.702 325.248C865.385 325.716 866.326 325.518 866.76 324.831C867.194 324.144 867.028 323.197 866.346 322.76C862.295 320.059 857.912 320.446 856.045 320.794L856.044 320.761Z" fill="#FF0020"/>
<path d="M924.29 308.705C922.428 309.051 918.189 310.223 915.352 314.162C914.872 314.832 915.02 315.761 915.686 316.245C916.351 316.729 917.275 316.58 917.755 315.91C920.607 311.954 925.391 311.559 925.423 311.558C926.236 311.492 926.859 310.771 926.793 309.952C926.727 309.133 926.011 308.506 925.197 308.572C925.133 308.573 924.799 308.597 924.258 308.705L924.29 308.705Z" fill="#FF0020"/>
<path d="M936.815 311.192C941.365 336.706 924.447 361.21 899.079 365.815C873.711 370.421 849.371 353.429 844.821 327.915C840.271 302.401 857.189 277.897 882.557 273.291C907.925 268.686 932.265 285.678 936.815 311.192ZM933.879 311.71C929.62 287.832 906.825 271.917 883.084 276.228C859.344 280.538 843.498 303.488 847.756 327.365C852.015 351.242 874.81 367.157 898.551 362.847C922.291 358.536 938.137 335.587 933.879 311.71Z" fill="#FF0020"/>
<path d="M889.57 340.642C890.519 345.861 893.508 349.698 896.246 349.211C898.984 348.725 900.434 344.1 899.485 338.881C898.536 333.662 895.547 329.826 892.809 330.312C890.071 330.799 888.62 335.424 889.57 340.642Z" fill="#FF0020"/>
<path d="M903.632 333.074C904.581 338.293 907.57 342.129 910.308 341.643C913.047 341.157 914.497 336.532 913.548 331.313C912.599 326.094 909.609 322.258 906.871 322.744C904.133 323.23 902.683 327.855 903.632 333.074Z" fill="#FF0020"/>
<path d="M873.82 338.326C874.769 343.545 877.758 347.381 880.496 346.895C883.235 346.409 884.685 341.784 883.736 336.565C882.787 331.346 879.797 327.51 877.059 327.996C874.321 328.482 872.871 333.107 873.82 338.326Z" fill="#FF0020"/>
<path d="M921.442 310.277L921.374 310.085C916.195 295.204 900.675 286.091 885.275 288.878C869.86 291.682 858.469 305.672 858.802 321.434L858.807 321.659L861.719 321.595L861.714 321.369C861.429 307.041 871.775 294.314 885.787 291.766C899.8 289.219 913.925 297.525 918.627 311.064L918.695 311.255L921.459 310.293L921.442 310.277Z" fill="#FF0020"/>
</svg>
