<svg width="517" height="623" viewBox="0 0 517 623" fill="none" xmlns="http://www.w3.org/2000/svg">
<path d="M176.083 312.178C175.623 312.473 175.356 312.693 175.309 312.743C174.664 313.27 174.587 314.209 175.115 314.83C175.643 315.452 176.588 315.527 177.233 315.001C177.28 314.95 181.092 311.922 185.898 312.675C186.732 312.804 187.507 312.271 187.653 311.455C187.8 310.638 187.267 309.891 186.433 309.761C181.595 309.01 177.682 311.125 176.067 312.195L176.083 312.178Z" fill="#FF0020"/>
<path d="M234.338 273.303C232.745 274.357 229.278 277.159 228.21 281.85C228.03 282.634 228.544 283.427 229.342 283.587C230.141 283.748 230.962 283.228 231.142 282.443C232.226 277.736 236.487 275.426 236.535 275.408C237.264 275.019 237.553 274.118 237.171 273.413C236.789 272.707 235.873 272.443 235.144 272.831C235.113 272.865 234.78 273.026 234.339 273.335L234.338 273.303Z" fill="#FF0020"/>
<path d="M247.453 270.478C261.828 291.393 255.722 320.201 233.822 334.739C211.92 349.246 182.418 344.049 168.01 323.136C153.635 302.221 159.741 273.413 181.641 258.875C203.542 244.368 233.045 249.565 247.453 270.478ZM244.918 272.158C231.452 252.567 203.82 247.706 183.305 261.295C162.791 274.884 157.079 301.866 170.545 321.456C184.011 341.047 211.643 345.908 232.158 332.319C252.672 318.73 258.384 291.748 244.918 272.158Z" fill="#FF0020"/>
<path d="M223.542 310.757C220.564 306.452 216.238 304.221 213.878 305.772C211.519 307.324 212.02 312.071 214.998 316.376C217.976 320.68 222.303 322.912 224.662 321.36C227.021 319.809 226.52 315.061 223.542 310.757Z" fill="#FF0020"/>
<path d="M233.484 298.14C230.506 293.835 226.18 291.604 223.82 293.155C221.461 294.707 221.962 299.454 224.94 303.759C227.918 308.063 232.245 310.295 234.604 308.743C236.963 307.192 236.462 302.444 233.484 298.14Z" fill="#FF0020"/>
<path d="M208.07 315.127C205.093 310.823 200.766 308.591 198.407 310.143C196.047 311.694 196.549 316.442 199.527 320.746C202.504 325.051 206.831 327.282 209.19 325.731C211.55 324.179 211.048 319.432 208.07 315.127Z" fill="#FF0020"/>
<path d="M232.464 275.862L232.313 275.728C221.595 264.505 203.54 262.694 190.325 271.494C177.109 280.294 172.116 297.461 178.692 311.443L178.781 311.644L181.474 310.404L181.385 310.203C175.394 297.502 179.927 281.88 191.957 273.858C203.971 265.852 220.383 267.516 230.136 277.699L230.287 277.834L232.448 275.847L232.464 275.862Z" fill="#FF0020"/>
<path d="M309.643 323.419C309.966 322.975 310.132 322.665 310.146 322.617C310.54 321.899 310.279 320.997 309.553 320.626C308.827 320.255 307.899 320.529 307.505 321.246C307.459 321.296 305.061 325.478 300.278 326.504C299.46 326.692 298.924 327.465 299.099 328.261C299.275 329.058 300.055 329.568 300.873 329.38C305.672 328.337 308.537 324.967 309.626 323.405L309.643 323.419Z" fill="#0DA05D"/>
<path d="M270.015 380.626C271.106 379.061 273.31 375.25 272.542 370.54C272.413 369.724 271.646 369.195 270.824 369.351C269.986 369.492 269.431 370.251 269.576 371.051C270.345 375.792 267.194 379.465 267.163 379.499C266.619 380.114 266.689 381.061 267.31 381.582C267.93 382.102 268.901 382.017 269.445 381.402C269.476 381.368 269.725 381.101 270.032 380.641L270.015 380.626Z" fill="#0DA05D"/>
<path d="M258.631 387.604C237.187 373.515 231.999 344.799 247.07 323.611C262.124 302.408 291.822 296.631 313.251 310.737C334.695 324.825 339.882 353.542 324.812 374.73C309.741 395.918 280.059 401.709 258.631 387.604ZM260.373 385.163C280.434 398.366 308.254 392.949 322.343 373.099C336.45 353.263 331.585 326.363 311.509 313.177C291.447 299.975 263.628 305.391 249.538 325.242C235.432 345.077 240.296 371.977 260.373 385.163Z" fill="#0DA05D"/>
<path d="M276.901 343.004C278.53 340.706 276.279 336.496 271.875 333.601C267.471 330.705 262.58 330.221 260.952 332.518C259.323 334.816 261.574 339.026 265.978 341.921C270.383 344.817 275.273 345.301 276.901 343.004Z" fill="#0DA05D"/>
<path d="M272.361 358.335C273.99 356.037 271.739 351.827 267.335 348.932C262.931 346.036 258.04 345.552 256.412 347.849C254.783 350.147 257.034 354.357 261.438 357.252C265.843 360.148 270.733 360.632 272.361 358.335Z" fill="#0DA05D"/>
<path d="M289.665 333.31C291.293 331.013 289.043 326.803 284.638 323.907C280.234 321.012 275.343 320.527 273.715 322.825C272.087 325.123 274.337 329.333 278.741 332.228C283.146 335.123 288.036 335.608 289.665 333.31Z" fill="#0DA05D"/>
<path d="M270.656 377.466L270.854 377.55C285.122 384.026 302.696 379.195 311.745 366.337C320.809 353.461 319.01 335.821 307.584 325.31L307.433 325.176L305.392 327.299L305.543 327.433C315.911 337.005 317.552 353.04 309.318 364.761C301.1 376.466 285.112 380.846 272.132 374.963L271.934 374.879L270.658 377.497L270.656 377.466Z" fill="#0DA05D"/>
<path d="M286.159 222.38C285.993 221.865 285.85 221.555 285.832 221.509C285.477 220.766 284.587 220.465 283.836 220.807C283.085 221.149 282.746 222.04 283.084 222.768C283.119 222.83 285.065 227.183 282.976 231.533C282.615 232.282 282.942 233.153 283.704 233.493C284.466 233.832 285.364 233.498 285.724 232.749C287.829 228.383 286.815 224.153 286.192 222.378L286.159 222.38Z" fill="#5757FF"/>
<path d="M308.988 287.736C308.362 285.952 306.571 281.965 302.204 279.811C301.47 279.436 300.534 279.743 300.137 280.466C299.74 281.19 300.038 282.099 300.771 282.474C305.173 284.658 306.254 289.306 306.272 289.353C306.451 290.156 307.27 290.638 308.097 290.449C308.923 290.261 309.431 289.451 309.252 288.647C309.234 288.6 309.155 288.254 308.988 287.736Z" fill="#5757FF"/>
<path d="M307.657 299.912C282.765 308.468 255.863 295.893 247.708 271.933C239.537 247.959 253.172 221.49 278.048 212.952C302.94 204.396 329.843 216.971 337.997 240.93C346.168 264.905 332.533 291.373 307.657 299.912ZM306.715 297.15C330.012 289.144 342.76 264.372 335.129 241.917C327.483 219.479 302.304 207.723 278.99 215.714C255.693 223.719 242.946 248.492 250.576 270.947C258.222 293.385 283.401 305.141 306.715 297.15Z" fill="#5757FF"/>
<path d="M282.614 259.919C281.729 257.356 276.881 256.667 271.788 258.379C266.694 260.091 263.283 263.557 264.169 266.12C265.054 268.683 269.902 269.373 274.995 267.66C280.089 265.948 283.5 262.482 282.614 259.919Z" fill="#5757FF"/>
<path d="M292.382 272.677C291.497 270.114 286.649 269.424 281.556 271.137C276.462 272.849 273.051 276.315 273.937 278.878C274.822 281.441 279.67 282.13 284.763 280.418C289.857 278.706 293.268 275.24 292.382 272.677Z" fill="#5757FF"/>
<path d="M282.387 244.092C281.501 241.529 276.654 240.839 271.561 242.552C266.467 244.264 263.056 247.73 263.942 250.293C264.827 252.856 269.675 253.545 274.768 251.833C279.862 250.121 283.273 246.655 282.387 244.092Z" fill="#5757FF"/>
<path d="M306.502 285.072L306.694 284.967C320.823 277.545 327.675 260.915 322.626 246.245C317.577 231.575 301.917 222.642 286.201 225.412L285.99 225.439L286.479 228.29L286.69 228.263C300.981 225.729 315.223 233.863 319.828 247.19C324.417 260.534 318.189 275.668 305.32 282.402L305.129 282.508L306.501 285.041L306.502 285.072Z" fill="#5757FF"/>
<path d="M247.894 192.322C248.388 192.057 248.674 191.883 248.738 191.848C249.435 191.398 249.626 190.468 249.177 189.794C248.727 189.12 247.777 188.95 247.08 189.4C247.033 189.45 242.891 192.038 238.206 190.752C237.4 190.526 236.557 191 236.328 191.774C236.098 192.548 236.554 193.38 237.343 193.591C242.06 194.874 246.189 193.192 247.91 192.305L247.894 192.322Z" fill="#0DA05D"/>
<path d="M185.578 224.556C187.289 223.669 191.012 221.278 192.619 216.733C192.881 215.96 192.479 215.145 191.693 214.874C190.909 214.634 190.068 215.045 189.774 215.82C188.169 220.397 183.665 222.216 183.618 222.234C182.838 222.547 182.466 223.405 182.752 224.147C183.055 224.904 183.924 225.25 184.688 224.954C184.736 224.935 185.071 224.806 185.561 224.541L185.578 224.556Z" fill="#0DA05D"/>
<path d="M172.311 226.007C160.477 203.603 169.852 175.542 193.254 163.465C216.624 151.389 245.274 159.783 257.109 182.219C268.943 204.624 259.568 232.685 236.166 244.762C212.796 256.837 184.146 248.443 172.311 226.007ZM175.017 224.603C186.102 245.579 212.908 253.446 234.805 242.15C256.702 230.855 265.47 204.585 254.401 183.592C243.317 162.616 216.511 154.75 194.614 166.045C172.734 177.355 163.949 203.61 175.017 224.603Z" fill="#0DA05D"/>
<path d="M209.699 183.842C207.238 179.231 203.201 176.534 200.681 177.818C198.16 179.101 198.112 183.88 200.572 188.49C203.033 193.1 207.07 195.797 209.591 194.514C212.111 193.23 212.159 188.452 209.699 183.842Z" fill="#0DA05D"/>
<path d="M198.37 195.294C195.91 190.683 191.872 187.986 189.352 189.27C186.832 190.554 186.783 195.332 189.244 199.942C191.704 204.553 195.742 207.249 198.262 205.966C200.782 204.682 200.831 199.904 198.37 195.294Z" fill="#0DA05D"/>
<path d="M225.587 181.225C223.127 176.615 219.089 173.918 216.569 175.202C214.049 176.485 214 181.263 216.461 185.874C218.921 190.484 222.959 193.181 225.479 191.898C227.999 190.614 228.048 185.836 225.587 181.225Z" fill="#0DA05D"/>
<path d="M187.76 222.228L187.88 222.395C197.24 234.731 214.965 238.531 229.076 231.218C243.186 223.905 250.118 207.354 245.196 192.701L245.139 192.498L242.319 193.444L242.376 193.647C246.857 206.962 240.548 222.022 227.727 228.678C214.889 235.319 198.783 231.859 190.278 220.649L190.158 220.481L187.775 222.211L187.76 222.228Z" fill="#0DA05D"/>
<path d="M158.702 474.679C158.13 474.66 157.784 474.679 157.733 474.673C156.895 474.723 156.305 475.443 156.418 476.237C156.52 477.05 157.302 477.663 158.119 477.601C158.183 477.588 163.088 477.344 166.725 480.761C167.352 481.356 168.321 481.362 168.882 480.779C169.442 480.195 169.411 479.271 168.772 478.694C165.115 475.265 160.617 474.727 158.662 474.654L158.702 474.679Z" fill="#5757FF"/>
<path d="M229.703 477.187C227.77 477.126 223.288 477.369 219.814 480.56C219.226 481.099 219.226 482.028 219.821 482.629C220.416 483.229 221.38 483.285 221.968 482.746C225.473 479.548 230.367 480.154 230.419 480.16C231.265 480.272 232 479.72 232.065 478.909C232.13 478.097 231.513 477.354 230.667 477.243C230.615 477.236 230.254 477.193 229.714 477.169L229.703 477.187Z" fill="#5757FF"/>
<path d="M241.852 482.253C242.425 507.632 221.478 527.576 195.161 526.715C168.825 525.842 146.914 504.515 146.342 479.136C145.77 453.757 166.697 433.8 193.033 434.673C219.369 435.547 241.28 456.874 241.852 482.253ZM238.808 482.152C238.269 458.394 217.764 438.402 193.099 437.607C168.446 436.793 148.826 455.467 149.386 479.237C149.926 502.994 170.43 522.986 195.095 523.781C219.749 524.595 239.368 505.922 238.808 482.152Z" fill="#5757FF"/>
<path d="M194.923 510.177C197.759 510.278 199.946 506.147 199.809 500.949C199.672 495.751 197.262 491.455 194.426 491.353C191.59 491.251 189.402 495.383 189.54 500.581C189.677 505.779 192.087 510.075 194.923 510.177Z" fill="#5757FF"/>
<path d="M210.372 505.823C213.208 505.925 215.396 501.794 215.258 496.596C215.121 491.398 212.711 487.101 209.875 487C207.039 486.898 204.852 491.029 204.989 496.227C205.126 501.425 207.536 505.721 210.372 505.823Z" fill="#5757FF"/>
<path d="M179.341 504.738C182.177 504.84 184.364 500.709 184.227 495.511C184.09 490.313 181.68 486.016 178.844 485.915C176.008 485.813 173.82 489.944 173.958 495.142C174.095 500.34 176.505 504.636 179.341 504.738Z" fill="#5757FF"/>
<path d="M226.538 478.247L226.499 478.042C223.604 462.692 209.315 450.715 193.299 450.167C177.284 449.619 163.583 460.653 161.469 475.843L161.444 476.06L164.407 476.605L164.432 476.388C166.37 462.586 178.817 452.531 193.388 453.037C207.958 453.542 220.935 464.421 223.579 478.402L223.618 478.607L226.558 478.259L226.538 478.247Z" fill="#5757FF"/>
<path d="M257.089 113.696C257.642 113.667 257.982 113.6 258.047 113.597C258.873 113.441 259.43 112.679 259.284 111.876C259.138 111.072 258.366 110.541 257.54 110.697C257.475 110.7 252.614 111.504 248.872 108.46C248.232 107.953 247.289 108.036 246.727 108.671C246.165 109.306 246.266 110.223 246.908 110.761C250.682 113.803 255.138 113.865 257.073 113.713L257.089 113.696Z" fill="#FF73FF"/>
<path d="M186.909 118.655C188.833 118.502 193.233 117.77 196.549 114.184C197.109 113.583 197.072 112.635 196.467 112.098C195.863 111.561 194.891 111.614 194.331 112.215C190.983 115.803 186.13 115.736 186.081 115.723C185.236 115.706 184.547 116.345 184.498 117.156C184.465 117.981 185.107 118.642 185.936 118.676C186.001 118.673 186.341 118.67 186.892 118.64L186.909 118.655Z" fill="#FF73FF"/>
<path d="M174.46 115.13C172.99 89.7611 193.107 67.4308 219.248 65.369C245.405 63.2905 267.881 82.2718 269.334 107.626C270.805 132.995 250.687 155.326 224.546 157.387C198.389 159.466 175.914 140.485 174.46 115.13ZM177.484 114.894C178.85 138.64 199.882 156.407 224.381 154.454C248.863 152.519 267.693 131.623 266.31 107.862C264.944 84.1162 243.912 66.3497 219.414 68.3019C194.931 70.2374 176.101 91.1338 177.484 114.894Z" fill="#FF73FF"/>
<path d="M225.635 90.836C225.289 85.6346 222.709 81.5725 219.872 81.7632C217.035 81.9538 215.015 86.3249 215.36 91.5263C215.706 96.7278 218.286 100.79 221.123 100.599C223.96 100.409 225.98 96.0374 225.635 90.836Z" fill="#FF73FF"/>
<path d="M210.563 96.8204C210.218 91.619 207.638 87.5569 204.8 87.7475C201.963 87.9382 199.943 92.3093 200.289 97.5107C200.634 102.712 203.214 106.774 206.051 106.584C208.889 106.393 210.909 102.022 210.563 96.8204Z" fill="#FF73FF"/>
<path d="M241.26 94.6651C240.915 89.4637 238.335 85.4016 235.498 85.5923C232.66 85.7829 230.64 90.154 230.986 95.3554C231.331 100.557 233.911 104.619 236.749 104.428C239.586 104.238 241.606 99.8665 241.26 94.6651Z" fill="#FF73FF"/>
<path d="M189.938 117.42L189.995 117.623C193.441 132.721 208.028 143.186 223.894 141.981C239.76 140.775 252.897 128.195 254.431 112.717L254.439 112.51L251.484 112.273L251.476 112.48C250.082 126.553 238.153 138.005 223.698 139.087C209.26 140.184 196.011 130.662 192.863 116.929L192.807 116.725L189.921 117.405L189.938 117.42Z" fill="#FF73FF"/>
<path d="M165.314 248.753C165.867 248.723 166.207 248.657 166.272 248.654C167.098 248.498 167.655 247.736 167.509 246.932C167.363 246.129 166.591 245.598 165.766 245.754C165.7 245.757 160.839 246.56 157.097 243.517C156.457 243.01 155.514 243.093 154.952 243.728C154.39 244.363 154.492 245.28 155.133 245.818C158.907 248.86 163.363 248.922 165.298 248.77L165.314 248.753Z" fill="#FF73FF"/>
<path d="M95.1336 253.711C97.0581 253.558 101.458 252.826 104.774 249.24C105.334 248.639 105.297 247.691 104.693 247.154C104.088 246.617 103.116 246.671 102.556 247.271C99.2078 250.859 94.3548 250.793 94.3057 250.78C93.4614 250.763 92.7726 251.402 92.723 252.212C92.6903 253.038 93.3325 253.699 94.1611 253.733C94.2259 253.729 94.5664 253.727 95.1168 253.696L95.1336 253.711Z" fill="#FF73FF"/>
<path d="M82.6853 250.187C81.2148 224.818 101.332 202.487 127.473 200.426C153.63 198.347 176.106 217.328 177.559 242.683C179.03 268.052 158.912 290.382 132.771 292.444C106.614 294.522 84.1389 275.541 82.6853 250.187ZM85.7091 249.951C87.0752 273.697 108.107 291.463 132.606 289.511C157.088 287.576 175.918 266.679 174.536 242.919C173.169 219.173 152.137 201.406 127.639 203.359C103.156 205.294 84.3262 226.19 85.7091 249.951Z" fill="#FF73FF"/>
<path d="M133.86 225.893C133.515 220.691 130.934 216.629 128.097 216.82C125.26 217.01 123.24 221.382 123.585 226.583C123.931 231.784 126.511 235.846 129.348 235.656C132.186 235.465 134.206 231.094 133.86 225.893Z" fill="#FF73FF"/>
<path d="M118.788 231.877C118.443 226.676 115.863 222.614 113.025 222.804C110.188 222.995 108.168 227.366 108.514 232.567C108.859 237.769 111.439 241.831 114.276 241.64C117.114 241.45 119.134 237.078 118.788 231.877Z" fill="#FF73FF"/>
<path d="M149.486 229.722C149.14 224.52 146.56 220.458 143.723 220.649C140.885 220.84 138.865 225.211 139.211 230.412C139.556 235.613 142.136 239.676 144.974 239.485C147.811 239.294 149.831 234.923 149.486 229.722Z" fill="#FF73FF"/>
<path d="M98.1628 252.476L98.2197 252.68C101.666 267.777 116.253 278.243 132.119 277.037C147.985 275.832 161.122 263.251 162.656 247.774L162.664 247.567L159.709 247.33L159.701 247.536C158.307 261.61 146.378 273.062 131.923 274.144C117.485 275.24 104.236 265.718 101.088 251.985L101.032 251.782L98.1459 252.461L98.1628 252.476Z" fill="#FF73FF"/>
<path d="M140.032 307.137C140.256 306.635 140.341 306.314 140.355 306.266C140.6 305.478 140.134 304.667 139.335 304.476C138.552 304.267 137.697 304.727 137.467 305.498C137.437 305.563 135.993 310.131 131.561 312.135C130.814 312.477 130.459 313.351 130.81 314.089C131.161 314.827 132.029 315.141 132.791 314.782C137.254 312.745 139.305 308.869 140.048 307.121L140.032 307.137Z" fill="#5757FF"/>
<path d="M113.931 371.42C114.675 369.667 115.957 365.489 114.155 361.05C113.848 360.289 112.973 359.94 112.188 360.252C111.404 360.564 111.031 361.425 111.338 362.186C113.156 366.64 110.885 370.887 110.854 370.921C110.46 371.64 110.739 372.529 111.469 372.902C112.199 373.275 113.115 372.987 113.509 372.268C113.54 372.235 113.69 371.909 113.914 371.405L113.931 371.42Z" fill="#5757FF"/>
<path d="M104.301 380.386C80.1073 371.216 68.5965 344.442 78.6571 320.693C88.7176 296.943 116.577 285.071 140.771 294.241C164.965 303.411 176.476 330.184 166.415 353.934C156.355 377.683 128.495 389.556 104.301 380.386ZM105.463 377.646C128.121 386.224 154.196 375.101 163.609 352.892C173.02 330.651 162.236 305.592 139.611 297.012C116.953 288.434 90.8772 299.557 81.4649 321.766C72.0526 343.976 82.8375 369.067 105.463 377.646Z" fill="#5757FF"/>
<path d="M112.467 333.326C113.526 330.816 110.321 327.212 105.309 325.275C100.298 323.339 95.3768 323.803 94.3183 326.313C93.2599 328.824 96.4646 332.428 101.476 334.365C106.488 336.301 111.409 335.837 112.467 333.326Z" fill="#5757FF"/>
<path d="M111.432 349.269C112.49 346.759 109.286 343.154 104.274 341.217C99.2624 339.281 94.3416 339.746 93.2832 342.256C92.2247 344.766 95.4295 348.371 100.441 350.307C105.453 352.244 110.374 351.779 111.432 349.269Z" fill="#5757FF"/>
<path d="M122.806 321.173C123.864 318.663 120.66 315.058 115.648 313.122C110.636 311.185 105.716 311.65 104.657 314.16C103.599 316.67 106.803 320.275 111.815 322.212C116.827 324.148 121.748 323.683 122.806 321.173Z" fill="#5757FF"/>
<path d="M113.745 368.056L113.958 368.092C129.408 371.367 145.586 362.96 151.595 348.517C157.603 334.075 151.915 317.277 138.365 309.463L138.182 309.362L136.657 311.853L136.839 311.954C149.161 319.075 154.351 334.332 148.876 347.478C143.416 360.607 128.686 368.254 114.643 365.283L114.431 365.247L113.762 368.071L113.745 368.056Z" fill="#5757FF"/>
<path d="M235.875 387.304C236.424 387.179 236.762 387.082 236.81 387.063C237.599 386.814 238.054 385.963 237.812 385.197C237.569 384.432 236.721 383.985 235.916 384.251C235.868 384.269 231.15 385.683 227.009 383.173C226.307 382.734 225.354 382.96 224.925 383.651C224.497 384.341 224.68 385.269 225.381 385.676C229.539 388.202 233.983 387.676 235.874 387.273L235.875 387.304Z" fill="#FF73FF"/>
<path d="M166.979 401.419C168.858 401.014 173.134 399.718 175.945 395.749C176.421 395.074 176.257 394.166 175.575 393.713C174.894 393.26 173.961 393.438 173.485 394.114C170.658 398.099 165.819 398.651 165.787 398.653C164.964 398.746 164.345 399.476 164.424 400.279C164.504 401.081 165.239 401.674 166.062 401.581C166.126 401.577 166.465 401.542 167.011 401.417L166.979 401.419Z" fill="#FF73FF"/>
<path d="M154.021 399.478C149.095 374.607 166.004 349.96 191.736 344.536C217.469 339.113 242.411 354.916 247.337 379.787C252.262 404.658 235.354 429.305 209.621 434.729C183.888 440.153 158.946 424.349 154.021 399.478ZM156.999 398.865C161.609 422.141 184.969 436.943 209.051 431.867C233.132 426.79 248.97 403.707 244.36 380.432C239.75 357.156 216.39 342.354 192.308 347.43C168.226 352.507 152.389 375.589 156.999 398.865Z" fill="#FF73FF"/>
<path d="M201.571 368.782C200.515 363.676 197.403 359.989 194.619 360.547C191.835 361.104 190.434 365.695 191.49 370.8C192.545 375.906 195.658 379.593 198.441 379.036C201.225 378.478 202.626 373.888 201.571 368.782Z" fill="#FF73FF"/>
<path d="M187.478 376.713C186.422 371.607 183.31 367.92 180.526 368.477C177.742 369.035 176.341 373.625 177.397 378.731C178.452 383.837 181.565 387.524 184.349 386.966C187.133 386.409 188.534 381.818 187.478 376.713Z" fill="#FF73FF"/>
<path d="M217.565 370.56C216.509 365.455 213.397 361.768 210.613 362.325C207.829 362.882 206.428 367.473 207.484 372.579C208.539 377.684 211.652 381.371 214.436 380.814C217.219 380.257 218.62 375.666 217.565 370.56Z" fill="#FF73FF"/>
<path d="M169.782 399.811L169.854 399.997C175.352 414.466 191.246 422.916 206.824 419.663C222.417 416.392 233.743 402.25 233.147 386.754L233.138 386.533L230.185 386.692L230.194 386.914C230.718 401.002 220.431 413.867 206.257 416.838C192.083 419.81 177.617 412.107 172.625 398.943L172.553 398.757L169.765 399.796L169.782 399.811Z" fill="#FF73FF"/>
<path d="M99.4808 488.702C99.1997 488.213 99.0061 487.918 98.9741 487.877C98.502 487.193 97.5358 486.971 96.8545 487.388C96.1733 487.804 95.9799 488.716 96.4729 489.41C96.5049 489.451 99.255 493.562 97.9878 498.089C97.7598 498.86 98.2567 499.704 99.058 499.94C99.8594 500.176 100.717 499.776 100.914 499.014C102.191 494.467 100.392 490.398 99.4501 488.711L99.4808 488.702Z" fill="#0DA05D"/>
<path d="M133.813 550.561C132.869 548.871 130.352 545.12 125.621 543.425C124.817 543.138 123.969 543.52 123.719 544.281C123.47 545.043 123.916 545.887 124.72 546.173C129.471 547.879 131.417 552.35 131.429 552.381C131.758 553.141 132.659 553.551 133.428 553.276C134.197 553.002 134.568 552.155 134.238 551.394C134.216 551.334 134.083 551.019 133.802 550.53L133.813 550.561Z" fill="#0DA05D"/>
<path d="M135.168 563.167C112.168 574.126 83.1658 564.348 70.5092 541.35C57.8526 518.352 66.2489 490.731 89.2482 479.772C112.248 468.814 141.25 478.591 153.907 501.589C166.563 524.588 158.167 552.209 135.168 563.167ZM133.717 560.502C155.241 550.246 163.106 524.377 151.261 502.854C139.416 481.331 112.253 472.173 90.7293 482.429C69.2056 492.685 61.3405 518.554 73.1857 540.076C85.0309 561.599 112.194 570.757 133.717 560.502Z" fill="#0DA05D"/>
<path d="M91.4391 525.563C86.7168 527.79 84.0029 531.6 85.3773 534.071C86.7518 536.543 91.6941 536.74 96.4164 534.512C101.139 532.285 103.853 528.475 102.478 526.004C101.104 523.532 96.1613 523.335 91.4391 525.563Z" fill="#0DA05D"/>
<path d="M103.432 537.038C98.71 539.266 95.996 543.076 97.3705 545.547C98.7449 548.019 103.687 548.216 108.41 545.988C113.132 543.76 115.846 539.951 114.471 537.479C113.097 535.008 108.154 534.81 103.432 537.038Z" fill="#0DA05D"/>
<path d="M88.4298 510.016C83.7075 512.244 80.9936 516.053 82.368 518.525C83.7425 520.996 88.6848 521.194 93.4071 518.966C98.1294 516.738 100.843 512.928 99.4689 510.457C98.0944 507.985 93.1521 507.788 88.4298 510.016Z" fill="#0DA05D"/>
<path d="M131.141 548.344L131.303 548.23C143.945 539.466 147.656 522.33 139.944 508.369C132.212 494.397 115.02 487.138 99.9487 491.509L99.7333 491.572L100.745 494.331L100.961 494.268C114.668 490.311 130.302 496.899 137.33 509.6C144.358 522.3 140.969 537.9 129.464 545.863L129.302 545.977L131.131 548.364L131.141 548.344Z" fill="#0DA05D"/>
<path d="M366.186 246.505C366.078 247.049 366.042 247.383 366.027 247.431C365.945 248.242 366.571 248.95 367.382 249C368.21 249.065 368.947 248.438 369.014 247.644C369.011 247.581 369.542 242.839 373.531 240.039C374.224 239.558 374.383 238.632 373.889 237.979C373.395 237.327 372.466 237.173 371.789 237.669C367.785 240.486 366.538 244.682 366.155 246.538L366.186 246.505Z" fill="#FF73FF"/>
<path d="M379.185 178.531C378.819 180.377 378.357 184.738 381.024 188.724C381.474 189.399 382.41 189.587 383.109 189.136C383.807 188.686 384.015 187.769 383.565 187.094C380.897 183.077 382.278 178.491 382.293 178.443C382.538 177.651 382.098 176.833 381.291 176.606C380.484 176.38 379.639 176.822 379.393 177.614C379.379 177.662 379.278 178.001 379.169 178.516L379.185 178.531Z" fill="#FF73FF"/>
<path d="M386.865 168.14C412.543 172.559 429.207 196.539 424.016 221.592C418.809 246.662 393.711 263.487 368.033 259.068C342.355 254.649 325.675 230.686 330.882 205.616C336.088 180.546 361.187 163.721 386.865 168.14ZM386.263 171.038C362.225 166.905 338.703 182.643 333.85 206.127C328.979 229.596 344.581 252.054 368.635 256.171C392.673 260.303 416.194 244.565 421.048 221.081C425.918 197.612 410.317 175.154 386.263 171.038Z" fill="#FF73FF"/>
<path d="M407.266 219.03C407.802 216.367 403.945 213.43 398.65 212.47C393.355 211.511 388.627 212.892 388.091 215.555C387.554 218.219 391.412 221.156 396.707 222.115C402.002 223.075 406.729 221.693 407.266 219.03Z" fill="#FF73FF"/>
<path d="M405.162 203.194C405.699 200.531 401.841 197.594 396.546 196.634C391.251 195.675 386.524 197.056 385.987 199.72C385.451 202.383 389.308 205.32 394.603 206.279C399.898 207.239 404.626 205.857 405.162 203.194Z" fill="#FF73FF"/>
<path d="M399.521 232.922C400.058 230.258 396.2 227.321 390.905 226.362C385.61 225.402 380.883 226.784 380.346 229.447C379.81 232.11 383.667 235.047 388.962 236.007C394.257 236.966 398.984 235.585 399.521 232.922Z" fill="#FF73FF"/>
<path d="M380.084 181.877L379.873 181.873C363.999 181.56 349.721 192.862 346.65 208.123C343.579 223.384 352.506 238.755 367.43 243.844L367.644 243.912L368.657 241.177L368.443 241.109C354.886 236.47 346.745 222.499 349.546 208.616C352.346 194.734 365.317 184.47 379.775 184.748L379.986 184.752L380.1 181.86L380.084 181.877Z" fill="#FF73FF"/>
<path d="M318.66 133.3C318.883 132.797 318.968 132.476 318.982 132.428C319.228 131.64 318.761 130.83 317.962 130.638C317.179 130.43 316.324 130.889 316.095 131.66C316.065 131.725 314.62 136.293 310.188 138.297C309.442 138.64 309.087 139.513 309.438 140.251C309.788 140.989 310.656 141.304 311.418 140.944C315.881 138.907 317.933 135.031 318.675 133.283L318.66 133.3Z" fill="#FF0020"/>
<path d="M292.558 197.582C293.302 195.829 294.584 191.651 292.782 187.212C292.476 186.451 291.6 186.102 290.816 186.414C290.031 186.726 289.659 187.587 289.965 188.348C291.784 192.802 289.513 197.049 289.481 197.083C289.087 197.802 289.366 198.691 290.096 199.064C290.827 199.437 291.742 199.149 292.137 198.43C292.168 198.397 292.317 198.071 292.541 197.568L292.558 197.582Z" fill="#FF0020"/>
<path d="M282.929 206.548C258.735 197.378 247.224 170.604 257.285 146.855C267.345 123.105 295.204 111.233 319.399 120.403C343.593 129.573 355.103 156.346 345.043 180.096C334.982 203.845 307.123 215.718 282.929 206.548ZM284.09 203.808C306.748 212.386 332.824 201.263 342.236 179.054C351.647 156.813 340.863 131.754 318.238 123.174C295.58 114.596 269.505 125.719 260.092 147.929C250.68 170.138 261.465 195.229 284.09 203.808Z" fill="#FF0020"/>
<path d="M291.095 159.489C292.153 156.978 288.948 153.374 283.937 151.437C278.925 149.501 274.004 149.966 272.946 152.476C271.887 154.986 275.092 158.59 280.104 160.527C285.115 162.464 290.036 161.999 291.095 159.489Z" fill="#FF0020"/>
<path d="M290.059 175.431C291.118 172.921 287.913 169.316 282.902 167.38C277.89 165.443 272.969 165.908 271.911 168.418C270.852 170.928 274.057 174.533 279.069 176.469C284.08 178.406 289.001 177.941 290.059 175.431Z" fill="#FF0020"/>
<path d="M301.433 147.335C302.492 144.825 299.287 141.22 294.276 139.284C289.264 137.347 284.343 137.812 283.285 140.322C282.226 142.832 285.431 146.437 290.443 148.374C295.454 150.31 300.375 149.845 301.433 147.335Z" fill="#FF0020"/>
<path d="M292.373 194.218L292.585 194.254C308.035 197.53 324.213 189.122 330.222 174.679C336.231 160.237 330.542 143.439 316.992 135.625L316.81 135.524L315.284 138.015L315.467 138.116C327.789 145.237 332.979 160.494 327.503 173.64C322.044 186.769 307.313 194.417 293.271 191.445L293.058 191.409L292.39 194.233L292.373 194.218Z" fill="#FF0020"/>
</svg>
