<svg width="36" height="36" viewBox="0 0 36 36" fill="none" xmlns="http://www.w3.org/2000/svg">
<path d="M27.1201 11.7334C27.2475 11.6125 27.3225 11.5322 27.3324 11.5195C27.5036 11.3264 27.4828 11.0175 27.2878 10.8417C27.0928 10.6658 26.7876 10.674 26.6149 10.8742C26.605 10.8869 25.5677 12.0211 24.0229 11.9688C23.7588 11.9562 23.5393 12.1685 23.5401 12.4285C23.5409 12.6885 23.7474 12.9189 24.0058 12.9228C25.5577 12.9766 26.6712 12.1337 27.1144 11.7248L27.1201 11.7334Z" fill="#5757FF"/>
<path d="M10.8154 26.5087C11.2571 26.1009 12.198 25.0682 12.288 23.518C12.3027 23.2547 12.1039 23.0265 11.8419 23.0067C11.58 22.987 11.357 23.183 11.3423 23.4464C11.2509 25.0037 10.0308 25.9166 10.0223 25.9222C9.81475 26.0771 9.7704 26.3785 9.92817 26.5904C10.0859 26.8023 10.3862 26.8525 10.5937 26.6976C10.6107 26.6864 10.6968 26.6237 10.8238 26.5031L10.8154 26.5087Z" fill="#5757FF"/>
<path d="M7.01805 27.9365C1.43092 21.754 1.79458 12.2333 7.83499 6.70951C13.8754 1.18576 23.332 1.7165 28.9191 7.89904C34.5062 14.0816 34.1426 23.6023 28.1022 29.126C22.0618 34.6498 12.6052 34.119 7.01805 27.9365ZM7.71971 27.3013C12.9486 33.0871 21.8054 33.5847 27.4582 28.4151C33.111 23.2455 33.452 14.3287 28.2231 8.54289C22.9943 2.75708 14.1375 2.25954 8.48469 7.42911C2.83188 12.5987 2.49084 21.5155 7.71971 27.3013Z" fill="#5757FF"/>
<path d="M14.6998 11.964C13.552 10.7023 12.0918 10.1603 11.4382 10.7535C10.7847 11.3466 11.1854 12.8502 12.3332 14.112C13.481 15.3737 14.9413 15.9157 15.5948 15.3225C16.2483 14.7294 15.8476 13.2257 14.6998 11.964Z" fill="#5757FF"/>
<path d="M12.209 16.3932C11.0612 15.1315 9.60091 14.5895 8.94739 15.1827C8.29387 15.7758 8.69456 17.2794 9.84237 18.5411C10.9902 19.8029 12.4504 20.3449 13.104 19.7517C13.7575 19.1586 13.3568 17.6549 12.209 16.3932Z" fill="#5757FF"/>
<path d="M19.3339 9.94302C18.1861 8.68131 16.7258 8.13932 16.0723 8.73245C15.4187 9.32559 15.8194 10.8292 16.9672 12.091C18.1151 13.3527 19.5753 13.8947 20.2288 13.3015C20.8824 12.7084 20.4817 11.2047 19.3339 9.94302Z" fill="#5757FF"/>
<path d="M11.3109 25.5985L11.3621 25.6393C15.3008 28.8203 21.0362 28.69 24.7046 25.339C28.3744 21.9807 29.0481 16.2536 26.2634 12.0172L26.2235 11.9566L25.4508 12.4642L25.4907 12.5247C28.0176 16.379 27.409 21.5864 24.0729 24.6386C20.7369 27.6909 15.5147 27.8062 11.9343 24.9103L11.8831 24.8696L11.3039 25.597L11.3109 25.5985Z" fill="#5757FF"/>
</svg>
