<svg width="34" height="35" viewBox="0 0 34 35" fill="none" xmlns="http://www.w3.org/2000/svg">
<path d="M7.94561 24.3078C7.82763 24.438 7.75886 24.5237 7.74994 24.5371C7.59371 24.7425 7.63765 25.049 7.84533 25.2097C8.05301 25.3704 8.35675 25.3393 8.51384 25.1267C8.52276 25.1133 9.47196 23.9044 11.0164 23.8405C11.2807 23.8332 11.4835 23.605 11.4632 23.3458C11.4429 23.0865 11.2197 22.8724 10.9617 22.8879C9.41011 22.9508 8.36315 23.875 7.95195 24.3161L7.94561 24.3078Z" fill="#0DA05D"/>
<path d="M23.0941 8.35011C22.6843 8.78992 21.8236 9.89034 21.8503 11.4429C21.8554 11.7066 22.0709 11.9193 22.3335 11.9193C22.5962 11.9193 22.8038 11.707 22.7988 11.4433C22.7729 9.88354 23.9209 8.88154 23.929 8.87535C24.1243 8.70526 24.1459 8.40141 23.9727 8.20197C23.7994 8.00254 23.4963 7.97499 23.3009 8.14508C23.2849 8.15746 23.2037 8.22654 23.0861 8.3563L23.0941 8.35011Z" fill="#0DA05D"/>
<path d="M26.7735 6.6408C32.8093 12.3861 33.1619 21.9073 27.5535 27.8692C21.9452 33.8311 12.4754 34.0123 6.43964 28.267C0.403837 22.5216 0.0512276 13.0005 5.6596 7.03858C11.268 1.07664 20.7377 0.895469 26.7735 6.6408ZM26.1215 7.32692C20.4728 1.95027 11.6037 2.11951 6.35519 7.69913C1.10672 13.2787 1.43652 22.196 7.08528 27.5726C12.734 32.9493 21.6032 32.7801 26.8516 27.2004C32.1001 21.6208 31.7703 12.7036 26.1215 7.32692Z" fill="#0DA05D"/>
<path d="M20.3133 23.1452C21.5526 24.3171 23.0495 24.7479 23.6566 24.1073C24.2637 23.4668 23.7512 21.9975 22.5119 20.8256C21.2725 19.6536 19.7757 19.2229 19.1685 19.8634C18.5614 20.504 19.0739 21.9733 20.3133 23.1452Z" fill="#0DA05D"/>
<path d="M22.4644 18.5417C23.7038 19.7136 25.2006 20.1444 25.8077 19.5038C26.4149 18.8633 25.9023 17.394 24.663 16.222C23.4236 15.0501 21.9268 14.6194 21.3197 15.2599C20.7125 15.9005 21.2251 17.3698 22.4644 18.5417Z" fill="#0DA05D"/>
<path d="M15.8443 25.509C17.0837 26.6809 18.5805 27.1117 19.1876 26.4711C19.7947 25.8306 19.2822 24.3613 18.0429 23.1893C16.8035 22.0174 15.3067 21.5867 14.6995 22.2272C14.0924 22.8678 14.605 24.3371 15.8443 25.509Z" fill="#0DA05D"/>
<path d="M22.6684 9.29468L22.6143 9.2579C18.4478 6.38171 12.7384 6.94249 9.33209 10.5597C5.92494 14.1841 5.68341 19.9457 8.77847 23.9609L8.82279 24.0183L9.55521 23.4542L9.51089 23.3968C6.70159 19.7432 6.91724 14.5049 10.0146 11.2106C13.1119 7.91632 18.3106 7.40901 22.0985 10.0277L22.1526 10.0645L22.6756 9.29568L22.6684 9.29468Z" fill="#0DA05D"/>
</svg>
