<svg width="105" height="73" viewBox="0 0 105 73" fill="none" xmlns="http://www.w3.org/2000/svg">
<g clip-path="url(#clip0_137_1162)">
<path d="M18.037 2.67124H17.2676V5.7162H18.2039C18.937 5.7162 19.554 5.29249 19.554 4.2009C19.554 2.98005 18.7701 2.66406 18.0442 2.66406L18.037 2.67124Z" fill="#1E1E1E"/>
<path d="M26.9652 2.59961C26.1522 2.59961 25.4917 3.27467 25.4917 4.20108C25.4917 5.1275 26.1522 5.79538 26.9652 5.79538C27.7781 5.79538 28.4241 5.12032 28.4241 4.20108C28.4241 3.28185 27.7854 2.59961 26.9652 2.59961Z" fill="#1E1E1E"/>
<path d="M0 0V8.39518H30.6595V0H0ZM3.20095 6.45617C2.40253 6.45617 1.71298 6.03965 1.49523 5.17787L2.15574 4.94806C2.32995 5.58721 2.76545 5.81702 3.20095 5.81702C3.61468 5.81702 4.02115 5.61594 4.02115 5.19223C4.02115 4.76852 3.61468 4.64643 3.22273 4.53153L2.83078 4.40944C2.39527 4.273 1.64766 4.0001 1.64766 3.18141C1.64766 2.36272 2.32995 1.93182 3.13563 1.93182C3.94131 1.93182 4.47843 2.38426 4.63812 2.9516L3.99212 3.21013C3.85421 2.81515 3.55662 2.5638 3.11385 2.5638C2.67109 2.5638 2.38801 2.79361 2.38801 3.11677C2.38801 3.52612 2.87433 3.69848 3.20095 3.79902L3.65823 3.94265C4.07922 4.07909 4.79054 4.28018 4.79054 5.09169C4.79054 5.9032 4.14455 6.44181 3.21547 6.44181L3.20095 6.45617ZM9.53028 2.67152H8.15844V6.36281H7.44712V2.67152H6.08254V2.02518H9.53028V2.67152ZM14.4732 4.70389C14.4732 5.49385 14.1902 6.46335 12.8183 6.46335C11.4465 6.46335 11.1852 5.55849 11.1852 4.70389V2.02518H11.8965V4.64643C11.8965 5.36458 12.1723 5.80266 12.8328 5.80266C13.4934 5.80266 13.7692 5.36458 13.7692 4.64643V2.02518H14.4732V4.70389ZM18.2549 6.36999H16.5491V2.02518H18.2041C19.663 2.02518 20.2872 2.99469 20.2872 4.16527C20.2872 5.45794 19.5324 6.36281 18.2549 6.36281V6.36999ZM22.8712 6.36999H22.1599V2.02518H22.8712V6.36281V6.36999ZM26.9504 6.46335C25.7383 6.46335 24.7439 5.53694 24.7439 4.20836C24.7439 2.87978 25.7383 1.94619 26.9577 1.94619C28.1771 1.94619 29.1642 2.90851 29.1642 4.20836C29.1642 5.50821 28.1844 6.46335 26.9504 6.46335Z" fill="#1E1E1E"/>
<path d="M19.1623 17.9251V13.0704H9.32716V11.0596H0.551758V40.6043H13.537C16.7961 40.6043 19.1623 38.299 19.1623 35.1176V19.1819H10.5974V34.9237C10.5974 35.3474 10.3869 35.7927 10.0022 35.7927H9.32716V17.9251H19.1623Z" fill="#1E1E1E"/>
<path d="M31.9299 11.0596V35.8358H30.6524V11.0596H21.8843V40.6043H40.6908V11.0596H31.9226H31.9299Z" fill="#1E1E1E"/>
<path d="M62.0374 17.9251V13.0704H52.2022V11.0596H43.4341V40.6043H56.4121C59.6711 40.6043 62.0374 38.299 62.0374 35.1176V19.1819H53.4724V34.9237C53.4724 35.3474 53.262 35.7927 52.8773 35.7927H52.195V17.9251H62.0301H62.0374Z" fill="#1E1E1E"/>
<path d="M83.3772 17.9251V13.0704H73.5421V11.0596H64.7739V40.6043H77.7519C81.011 40.6043 83.3772 38.299 83.3772 35.1176V19.1819H74.8123V34.9237C74.8123 35.3474 74.6018 35.7927 74.2171 35.7927H73.5421V17.9251H83.3772Z" fill="#1E1E1E"/>
<path d="M91.8117 11.0596C88.2115 11.0596 86.0703 13.1566 86.0703 16.6683V40.6115H99.0919C102.714 40.6115 104.877 38.5145 104.877 35.0027V11.0596H91.819H91.8117ZM96.1087 34.8016C96.1087 35.4049 95.8474 35.7927 95.4336 35.7927H94.8385V16.8622C94.8385 16.2446 95.1143 15.8281 95.5208 15.8281H96.1159V34.7944L96.1087 34.8016Z" fill="#1E1E1E"/>
<path d="M0.551758 43.4551V72.9998H9.3199V70.989H13.733C16.992 70.989 19.3583 68.6981 19.3583 65.5454V43.4551H0.551758ZM10.5901 65.3012C10.5901 65.7249 10.3796 66.1702 9.99493 66.1702H9.3199V48.2164H10.5974V65.294L10.5901 65.3012Z" fill="#1E1E1E"/>
<path d="M22.0581 43.4551V72.9998H30.8263V66.9673H32.1037V72.9998H40.8719V43.4551H22.0654H22.0581ZM32.0965 62.1557H30.819V48.2236H32.0965V62.1557Z" fill="#1E1E1E"/>
<path d="M62.1608 60.6479V43.4482H49.4223C45.8004 43.4482 43.5576 45.5955 43.5576 49.0498V66.7594H53.3927V67.1903C53.3927 67.6786 53.1096 68.0162 52.7104 68.0162H43.5503V72.993H56.4049C60.0051 72.993 62.1463 70.896 62.1463 67.3914V61.9119H52.3112V49.2581C52.3112 48.6405 52.5797 48.2239 52.9862 48.2239H53.5814V60.6551H62.1463L62.1608 60.6479Z" fill="#1E1E1E"/>
<path d="M83.45 50.3138V45.4591H73.6148V43.4482H64.8467V72.993H77.8247C81.0837 72.993 83.45 70.6877 83.45 67.5135V51.5777H74.885V67.3196C74.885 67.7433 74.6746 68.1885 74.2899 68.1885H73.6076V50.3209H83.4427L83.45 50.3138Z" fill="#1E1E1E"/>
<path d="M86.1934 43.4551V72.9998H94.9615V66.9673H96.239V72.9998H105.007V43.4551H86.2006H86.1934ZM96.2317 62.1557H94.9543V48.2236H96.2317V62.1557Z" fill="#1E1E1E"/>
</g>
<defs>
<clipPath id="clip0_137_1162">
<rect width="105" height="73" fill="white"/>
</clipPath>
</defs>
</svg>
