<svg width="41" height="40" viewBox="0 0 41 40" fill="none" xmlns="http://www.w3.org/2000/svg">
<path d="M24.0805 30.4375C24.1697 30.5888 24.2312 30.6799 24.2413 30.6924C24.3911 30.9025 24.6968 30.9515 24.9119 30.8008C25.127 30.6502 25.1875 30.3509 25.031 30.1378C25.0209 30.1253 24.1481 28.8602 24.5452 27.3664C24.6167 27.1118 24.459 26.8504 24.2054 26.7928C23.9518 26.7353 23.6811 26.885 23.6193 27.1359C23.219 28.6363 23.791 29.9103 24.0902 30.4339L24.0805 30.4375Z" fill="#FF73FF"/>
<path d="M13.3356 11.2363C13.634 11.7582 14.4295 12.9065 15.9201 13.3417C16.1735 13.4151 16.4404 13.2724 16.5184 13.0216C16.5963 12.7707 16.4552 12.5095 16.2019 12.4361C14.7047 11.998 14.0884 10.6044 14.0849 10.5948C13.9804 10.3578 13.6967 10.2471 13.4548 10.3533C13.2129 10.4596 13.0967 10.7409 13.2012 10.9779C13.2082 10.997 13.2501 11.095 13.3391 11.2458L13.3356 11.2363Z" fill="#FF73FF"/>
<path d="M12.7949 7.21553C20.0723 3.15614 29.2693 5.6443 33.2988 12.769C37.3283 19.8938 34.6917 28.9908 27.4142 33.0502C20.1368 37.1096 10.9398 34.6215 6.91031 27.4967C2.88082 20.372 5.51745 11.2749 12.7949 7.21553ZM13.2567 8.04171C6.44616 11.8409 3.97632 20.3608 7.7475 27.0284C11.5187 33.696 20.1322 36.0268 26.9428 32.2277C33.7533 28.4285 36.2231 19.9085 32.4519 13.2409C28.6808 6.57333 20.0672 4.24255 13.2567 8.04171Z" fill="#FF73FF"/>
<path d="M26.6392 18.2817C28.1261 17.4459 28.9816 16.1442 28.55 15.3744C28.1184 14.6046 26.5632 14.6581 25.0764 15.4939C23.5895 16.3297 22.734 17.6314 23.1656 18.4012C23.5972 19.1711 25.1524 19.1175 26.6392 18.2817Z" fill="#FF73FF"/>
<path d="M22.8812 14.8613C24.3681 14.0255 25.2235 12.7238 24.7919 11.954C24.3604 11.1842 22.8052 11.2377 21.3183 12.0735C19.8314 12.9093 18.976 14.211 19.4075 14.9808C19.8391 15.7506 21.3943 15.6971 22.8812 14.8613Z" fill="#FF73FF"/>
<path d="M27.5706 23.2505C29.0575 22.4146 29.913 21.113 29.4814 20.3431C29.0498 19.5733 27.4946 19.6268 26.0078 20.4627C24.5209 21.2985 23.6654 22.6001 24.097 23.37C24.5286 24.1398 26.0838 24.0863 27.5706 23.2505Z" fill="#FF73FF"/>
<path d="M14.1115 11.9232L14.0603 11.964C10.0775 15.0895 8.91903 20.7082 11.3627 25.0343C13.8131 29.3634 19.2436 31.3035 23.9963 29.5391L24.0642 29.5138L23.7428 28.647L23.6748 28.6723C19.3523 30.2711 14.4138 28.511 12.1868 24.5757C9.95984 20.6404 11.0178 15.5253 14.6425 12.6849L14.6937 12.6442L14.1146 11.9167L14.1115 11.9232Z" fill="#FF73FF"/>
</svg>
